<svg xmlns="http://www.w3.org/2000/svg" viewBox="0 0 45.46 62.46"><defs><style>.cls-1{fill:#f9aa41;}</style></defs><g id="Layer_2" data-name="Layer 2"><g id="OBJECTS"><path class="cls-1" d="M45.18,36.3c-2.13-10.83-14.1-19.22-23.77-24.56l5.27-2.62a1.5,1.5,0,0,0-.3-2.8L1.87.05A1.47,1.47,0,0,0,.23.71,1.51,1.51,0,0,0,.36,2.48L15.11,19.69a1.5,1.5,0,0,0,1.14.53,1.24,1.24,0,0,0,.33,0,1.5,1.5,0,0,0,1.12-1.07l1.4-5.18A72.45,72.45,0,0,1,36.61,27.09c2.77,3.05,5.08,6.52,5.55,10.39a24.72,24.72,0,0,1-1,10.61C37.11,60,22.29,62,11.65,58.68a22.46,22.46,0,0,1-10-6.23.19.19,0,0,0-.27-.06.2.2,0,0,0,0,.27c4.72,7.09,13.86,10,22.08,9.79,8.73.07,17.46-4.8,20.48-13.33A26.47,26.47,0,0,0,45.18,36.3ZM15.54,15.59,5.73,4.13l16,4.1-4.1,2a1.27,1.27,0,0,0-.34.2,1.46,1.46,0,0,0-.59.83Z"/></g></g></svg>