<svg width="135" height="79" viewBox="0 0 135 79" fill="none" xmlns="http://www.w3.org/2000/svg">
<path d="M89.3 32.9828H126.3C126.12 32.2539 125.15 29.742 120.2 30.74C120.616 30.3579 120.936 29.8619 121.131 29.3C121.325 28.7381 121.387 28.1294 121.31 27.5328C121.252 27.1752 121.102 26.8442 120.88 26.5797C120.667 26.3558 120.41 26.1906 120.13 26.0974C118.13 25.3012 114.76 28.3402 114.76 28.3402C118.95 20.9726 107.54 17.8775 107.47 27.2188C107.47 27.2188 105.79 23.8546 103.96 24.7966C103.22 25.2676 103.68 26.703 103.96 27.331C98.62 24.4266 93.76 26.2096 96.02 29.5738C90.82 29.5626 89.3 32.9828 89.3 32.9828Z" fill="#EAEAEA"/>
<path d="M18.76 15.3319H41.15C41.04 14.8946 40.45 13.3695 37.46 13.9526C37.7103 13.7205 37.9032 13.4202 38.0205 13.0805C38.1378 12.7409 38.1755 12.3732 38.13 12.0126C38.0949 11.7976 38.0045 11.5989 37.87 11.4407C37.7391 11.3021 37.5818 11.1985 37.41 11.1379C36.23 10.6669 34.17 12.4948 34.17 12.4948C36.7 8.00927 29.8 6.1589 29.75 11.7995C29.75 11.7995 28.75 9.78102 27.63 10.3417C27.18 10.6221 27.46 11.4631 27.63 11.878C24.4 10.1174 21.46 11.194 22.83 13.2013C19.64 13.2798 18.76 15.3319 18.76 15.3319Z" fill="#EAEAEA"/>
<path d="M85.9818 9.65808C87.5674 7.88008 87.5674 4.99736 85.9818 3.21936C84.3963 1.44136 81.8257 1.44136 80.2401 3.21936C78.6546 4.99737 78.6546 7.88008 80.2401 9.65808C81.8257 11.4361 84.3963 11.4361 85.9818 9.65808Z" fill="#F9AA41"/>
<path d="M34.15 23.1593H27.74V36.4702H34.15V23.1593Z" fill="#B1DAED"/>
<path d="M27.74 26.5347V27.8131L34.15 26.9944V26.5347H27.74Z" fill="#1E9CCF"/>
<path d="M34.9 24.9199H26.99V26.5235H34.9V24.9199Z" fill="#1B7EAF"/>
<path d="M112.18 78.0069H133.5C133.343 77.4756 133.081 76.9904 132.735 76.5868C132.389 76.1832 131.967 75.8715 131.5 75.6744C130.527 75.3052 129.473 75.3052 128.5 75.6744C128.68 75.6183 128.92 75.2482 129.04 75.1025C129.359 74.7625 129.576 74.3196 129.66 73.8353C129.694 73.5558 129.677 73.2715 129.61 72.9996C129.543 72.7278 129.427 72.4741 129.27 72.2541C128.992 71.901 128.639 71.6318 128.245 71.4712C127.85 71.3105 127.425 71.2636 127.01 71.3346H126.89C126.73 71.366 126.572 71.4148 126.42 71.4804C125.769 71.79 125.181 72.2439 124.69 72.8148C124.6 72.927 124.5 73.0279 124.42 73.14C125.113 72.5221 125.693 71.7607 126.13 70.8972C127.33 68.1049 124.79 64.0567 121.62 65.2006C120.316 65.8818 119.258 67.0406 118.62 68.4863C121.15 64.2362 116.95 61.6457 115.46 65.4809C116.38 62.3186 115.01 59.0216 112.22 60.8719H112.11L112.18 78.0069Z" fill="#1E9CCF"/>
<path d="M112.18 78.0069H124.76C124.668 77.6991 124.518 77.4174 124.319 77.1811C124.12 76.9449 123.879 76.7599 123.61 76.6387C123.04 76.42 122.42 76.42 121.85 76.6387C121.963 76.3051 121.957 75.9352 121.832 75.6069C121.707 75.2786 121.473 75.0173 121.18 74.8781C120.891 74.7833 120.588 74.7583 120.289 74.8047C119.991 74.8511 119.705 74.9679 119.45 75.1473C119.922 74.8605 120.279 74.3836 120.45 73.8128C120.609 73.3807 120.656 72.9073 120.587 72.4464C120.518 71.9855 120.335 71.5556 120.059 71.2053C119.783 70.855 119.425 70.5985 119.026 70.4647C118.627 70.331 118.202 70.3254 117.8 70.4486C117.032 70.8477 116.408 71.5279 116.03 72.3774C117.53 69.8767 115.03 68.3516 114.17 70.6056C115.03 68.1385 113.38 66.6919 112.17 67.2414L112.18 78.0069Z" fill="#2288C4"/>
<path d="M125.2 64.5276C124.971 64.741 124.678 64.8492 124.38 64.8304C124.419 64.4783 124.555 64.1488 124.77 63.8884C125.006 63.682 125.301 63.5784 125.6 63.5968C125.56 63.9473 125.419 64.2739 125.2 64.5276Z" fill="#1E9CCF"/>
<path d="M115.51 68.4863C115.328 68.8076 115.047 69.043 114.72 69.1478C114.659 68.769 114.701 68.3784 114.84 68.0264C115.022 67.7051 115.303 67.4697 115.63 67.3649C115.691 67.7437 115.649 68.1343 115.51 68.4863Z" fill="#2288C4"/>
<path d="M124.18 63.2044C124.25 63.6934 124.183 64.1946 123.99 64.6398C123.649 64.3649 123.399 63.9703 123.28 63.5184C123.205 63.0295 123.272 62.5264 123.47 62.083C123.811 62.3579 124.061 62.7525 124.18 63.2044Z" fill="#1E9CCF"/>
<path d="M10.49 77.9507L10.82 72.6129L8.19 69.2039L8.35 69.0581L9.9 70.5495L10.13 69.0581L10.38 69.1254L10.33 70.9869L10.96 71.6709L11.2 66.2322L9.92 64.4379L10.06 64.3034L11.39 65.5033L11.48 62.6549H11.83L12.06 66.1537L12.4 69.63L14.13 67.5218L14.29 67.6339L13.66 68.7553L14.76 68.7441V68.9459L13.56 69.1478L12.37 71.2336L12.64 77.9507H10.49Z" fill="#994F61"/>
<path d="M21.76 58.7188C21.8067 58.0537 21.7143 57.3856 21.49 56.7676C21.3764 56.4591 21.1964 56.1869 20.9661 55.9756C20.7357 55.7642 20.4622 55.6202 20.17 55.5565C20.0005 55.5214 19.8259 55.536 19.663 55.5989C19.5 55.6617 19.3543 55.7707 19.24 55.9153C19.9395 55.0209 20.4611 53.9696 20.77 52.8315C20.9183 52.2614 20.9458 51.6604 20.8503 51.0764C20.7548 50.4923 20.539 49.9413 20.22 49.4673C19.8796 49.0376 19.4488 48.71 18.9668 48.5141C18.4849 48.3183 17.967 48.2605 17.46 48.3459C16.4513 48.5505 15.5404 49.1507 14.89 50.0392C15.1196 48.2758 15.1699 46.4888 15.0401 44.7126C14.7501 42.952 13.51 41.2026 11.92 41.2811C11.3856 41.3679 10.873 41.577 10.4136 41.8953C9.95434 42.2136 9.55825 42.6343 9.25001 43.1314C7.82109 45.0836 6.95608 47.4774 6.77003 49.9943C6.38675 49.3338 5.92215 48.7373 5.39003 48.2226C5.11623 47.9615 4.79713 47.7669 4.45289 47.6511C4.10866 47.5353 3.74676 47.5007 3.39003 47.5497C2.83634 47.7374 2.34142 48.0972 1.96266 48.5874C1.5839 49.0777 1.3368 49.6783 1.25001 50.3196C0.959314 51.6673 1.00079 53.0782 1.37001 54.4015C2.14083 56.5421 3.33401 58.459 4.86 60.0085C4.52431 59.8756 4.15667 59.8869 3.82795 60.0401C3.49924 60.1933 3.23278 60.4777 3.08003 60.8383C2.9198 61.3259 2.88836 61.855 2.98945 62.3622C3.09055 62.8694 3.31991 63.3331 3.65004 63.6979C4.1707 64.3327 4.7998 64.8437 5.50001 65.2006C7.43596 66.1955 9.54044 66.7104 11.67 66.7104C13.7995 66.7104 15.9041 66.1955 17.84 65.2006C19.2142 64.5197 20.3398 63.3327 21.03 61.8364C21.4921 60.8776 21.7424 59.8085 21.76 58.7188Z" fill="#1E9CCF"/>
<path d="M9.43996 67.6901C9.25996 67.4658 8.72995 67.3649 8.73995 67.791C8.57995 66.479 7.05996 66.9836 7.73996 68.2283C6.56996 66.8714 5.52996 68.6096 7.04996 69.3497C5.75996 69.3497 6.47996 71.4468 7.60995 70.5384C7.50387 70.586 7.419 70.679 7.37399 70.7967C7.32898 70.9145 7.32753 71.0474 7.36996 71.1664C7.4124 71.2854 7.49523 71.3806 7.60025 71.4311C7.70527 71.4816 7.82387 71.4832 7.92996 71.4356C9.27995 71.2562 10.62 68.9124 9.43996 67.6901Z" fill="#1E9CCF"/>
<path d="M7.15002 63.8437C7.02501 63.4875 6.97701 63.1032 7.01001 62.7223C7.0258 62.5369 7.08252 62.3588 7.17505 62.2041C7.26758 62.0494 7.39304 61.9231 7.54004 61.8364C7.62331 61.7812 7.71825 61.752 7.815 61.752C7.91176 61.752 8.00676 61.7812 8.09003 61.8364C7.59172 61.4847 7.16566 61.0184 6.84003 60.4683C6.67789 60.1934 6.57612 59.8794 6.54309 59.5519C6.51007 59.2245 6.54672 58.8929 6.65002 58.5843C6.76325 58.2863 6.94343 58.0264 7.17303 57.8298C7.40264 57.6333 7.67383 57.5068 7.96002 57.4629C8.52491 57.3835 9.0964 57.5348 9.57001 57.8891C9.19793 56.9925 8.91617 56.0522 8.72998 55.0856C8.65381 54.5991 8.72833 54.098 8.94116 53.6656C9.15399 53.2331 9.49236 52.8953 9.90002 52.7082C10.1959 52.6572 10.4981 52.6756 10.7873 52.7625C11.0765 52.8494 11.3465 53.0028 11.58 53.2129C12.6225 53.9913 13.4257 55.1112 13.88 56.42C13.9926 56.0018 14.154 55.6021 14.36 55.2314C14.4671 55.0473 14.6067 54.8897 14.77 54.7682C14.9334 54.6467 15.1171 54.5639 15.31 54.5249C15.6346 54.5248 15.9522 54.6309 16.2239 54.83C16.4957 55.0292 16.7098 55.3128 16.84 55.6463C17.1907 56.3071 17.3707 57.0642 17.36 57.833C17.2541 59.102 16.8879 60.3263 16.29 61.4103C16.4517 61.2828 16.649 61.2251 16.8456 61.2477C17.0422 61.2704 17.2248 61.3719 17.36 61.5336C17.5144 61.7651 17.6059 62.0417 17.6237 62.3301C17.6414 62.6185 17.5846 62.9066 17.46 63.1597C17.271 63.5831 17.0132 63.9634 16.7 64.281C15.8132 65.1628 14.7671 65.8195 13.6333 66.2065C12.4995 66.5936 11.3045 66.7019 10.13 66.5238C9.30038 66.4068 8.53129 65.9755 7.95001 65.3015C7.58657 64.8913 7.31277 64.3924 7.15002 63.8437Z" fill="#2288C4"/>
<path d="M2.80999 59.3805C2.94026 59.6921 2.97203 60.044 2.90001 60.3785C2.60713 60.2706 2.35635 60.0528 2.19 59.7617C2.05973 59.4502 2.02802 59.0982 2.10004 58.7637C2.39292 58.8716 2.64364 59.0894 2.80999 59.3805Z" fill="#1E9CCF"/>
<path d="M1.48999 60.3225C1.91376 60.3233 2.32405 60.4898 2.65002 60.7935C2.35681 61.1337 1.96865 61.3514 1.54999 61.4103C1.12765 61.4007 0.71995 61.2351 0.390015 60.9393C0.685111 60.6019 1.07226 60.3848 1.48999 60.3225Z" fill="#1E9CCF"/>
<path d="M15.19 69.361C15.0408 69.2763 14.9212 69.1382 14.85 68.9686C15.0059 68.9112 15.1741 68.9112 15.33 68.9686C15.4752 69.0503 15.5915 69.1846 15.66 69.3498C15.509 69.4133 15.3433 69.4172 15.19 69.361Z" fill="#1E9CCF"/>
<path d="M15.46 68.475C15.2801 68.6317 15.0578 68.7147 14.83 68.7105C14.8525 68.4571 14.9512 68.2198 15.11 68.0377C15.2899 67.881 15.5122 67.7979 15.74 67.8022C15.7175 68.0556 15.6188 68.2929 15.46 68.475Z" fill="#1E9CCF"/>
<path d="M15.12 53.8184C14.8911 54.0511 14.5984 54.1895 14.29 54.2108C14.2968 53.8649 14.4098 53.5322 14.61 53.2689C14.8415 53.0424 15.1334 52.9083 15.44 52.8876C15.4286 53.2291 15.316 53.5567 15.12 53.8184Z" fill="#2288C4"/>
<path d="M7.44 56.7229C7.6354 56.8201 7.79453 56.9907 7.89001 57.2051C7.69003 57.2885 7.47001 57.2885 7.27002 57.2051C7.0781 57.1022 6.92045 56.9332 6.82001 56.7229C7.02015 56.6405 7.23986 56.6405 7.44 56.7229Z" fill="#2288C4"/>
<path d="M13.93 52.6857C14.0518 53.1395 14.0307 53.6266 13.87 54.065C13.4932 53.8458 13.1936 53.4901 13.02 53.0558C12.8989 52.6018 12.9201 52.115 13.08 51.6764C13.4568 51.8956 13.7564 52.2513 13.93 52.6857Z" fill="#2288C4"/>
<path d="M8.67999 70.7178C8.56714 70.7344 8.45288 70.7344 8.34003 70.7178C8.17953 70.6977 8.03061 70.6142 7.91998 70.4823C7.87535 70.4203 7.8448 70.3471 7.83087 70.269C7.81694 70.1909 7.82008 70.1102 7.84003 70.0338C7.91003 69.8207 8.16002 69.8767 8.27002 69.7085C8.30468 69.6075 8.30468 69.4956 8.27002 69.3946C8.25009 69.2835 8.25009 69.1691 8.27002 69.0581C8.27743 69.0026 8.30311 68.9523 8.34198 68.917C8.38085 68.8817 8.43006 68.864 8.47998 68.8675C8.55998 68.8675 8.60002 68.9684 8.65003 69.0245C8.67771 69.0618 8.71704 69.0858 8.76001 69.0917C8.95001 69.0917 8.98999 68.7778 9.17999 68.8226C9.36999 68.8675 9.5 69.0917 9.56 69.2936C9.6071 69.4665 9.61627 69.6496 9.58667 69.8273C9.55707 70.0049 9.4896 70.172 9.39002 70.3141C9.20782 70.5452 8.95387 70.6895 8.67999 70.7178Z" fill="#2288C4"/>
<path d="M90.11 18.9094L44.72 18.0347L18.44 46.406H38.64H95.38H115.59L90.11 18.9094Z" fill="#1B7EAF"/>
<path d="M113.34 46.4059H83.85V75.9883H113.34V46.4059Z" fill="#B1DAED"/>
<path d="M113.34 46.4059H110.12V75.9883H113.34V46.4059Z" fill="#ECA305"/>
<path d="M87.07 46.4059H83.85V75.9883H87.07V46.4059Z" fill="#ECA305"/>
<path d="M110.11 50.6785H87.07V51.0373H110.11V50.6785Z" fill="#E1ECEF"/>
<path d="M110.11 54.8501H87.07V55.2089H110.11V54.8501Z" fill="#E1ECEF"/>
<path d="M110.11 59.0216H87.07V59.3805H110.11V59.0216Z" fill="#E1ECEF"/>
<path d="M110.11 63.182H87.07V63.5409H110.11V63.182Z" fill="#E1ECEF"/>
<path d="M110.11 67.3536H87.07V67.7125H110.11V67.3536Z" fill="#E1ECEF"/>
<path d="M110.11 71.5139H87.07V71.8728H110.11V71.5139Z" fill="#E1ECEF"/>
<path d="M87.07 50.6785H83.85V51.0373H87.07V50.6785Z" fill="#C4860A"/>
<path d="M87.07 54.8501H83.85V55.2089H87.07V54.8501Z" fill="#C4860A"/>
<path d="M87.07 59.0216H83.85V59.3805H87.07V59.0216Z" fill="#C4860A"/>
<path d="M87.07 63.182H83.85V63.5409H87.07V63.182Z" fill="#C4860A"/>
<path d="M87.07 67.3536H83.85V67.7125H87.07V67.3536Z" fill="#C4860A"/>
<path d="M87.07 71.5139H83.85V71.8728H87.07V71.5139Z" fill="#C4860A"/>
<path d="M113.34 50.6785H110.12V51.0373H113.34V50.6785Z" fill="#C4860A"/>
<path d="M113.34 54.8501H110.12V55.2089H113.34V54.8501Z" fill="#C4860A"/>
<path d="M113.34 59.0216H110.12V59.3805H113.34V59.0216Z" fill="#C4860A"/>
<path d="M113.34 63.182H110.12V63.5409H113.34V63.182Z" fill="#C4860A"/>
<path d="M113.34 67.3536H110.12V67.7125H113.34V67.3536Z" fill="#C4860A"/>
<path d="M113.34 71.5139H110.12V71.8728H113.34V71.5139Z" fill="#C4860A"/>
<path d="M50.17 46.4059H20.6801V75.9883H50.17V46.4059Z" fill="#B1DAED"/>
<path d="M49.92 50.6785H20.6801V51.0373H49.92V50.6785Z" fill="#E1ECEF"/>
<path d="M49.92 54.8501H20.6801V55.2089H49.92V54.8501Z" fill="#E1ECEF"/>
<path d="M49.92 59.0216H20.6801V59.3805H49.92V59.0216Z" fill="#E1ECEF"/>
<path d="M49.92 63.182H20.6801V63.5409H49.92V63.182Z" fill="#E1ECEF"/>
<path d="M49.92 67.3536H20.6801V67.7125H49.92V67.3536Z" fill="#E1ECEF"/>
<path d="M49.92 71.5139H20.6801V71.8728H49.92V71.5139Z" fill="#E1ECEF"/>
<path d="M45.14 52.4839H25.72V75.9883H45.14V52.4839Z" fill="#ECA305"/>
<path d="M45.14 53.5156L25.72 57.048V52.4839H45.14V53.5156Z" fill="#C4860A"/>
<path d="M50.17 75.9771H48.88L49.69 46.4059H50.17V75.9771Z" fill="#1E9CCF"/>
<path d="M50.17 46.8881L20.6801 48.6935V46.4059H50.17V46.8881Z" fill="#1E9CCF"/>
<path d="M87.07 46.4059V48.5029L110.12 47.0899V46.4059H87.07Z" fill="#1E9CCF"/>
<path d="M110.12 46.4059V47.0899L113.34 46.8881V46.4059H110.12Z" fill="#C4860A"/>
<path d="M83.85 46.4059V48.6935L87.07 48.5029V46.4059H83.85Z" fill="#C4860A"/>
<path d="M83.85 75.9772H50.17V29.9887L67.01 15.2535L83.85 29.9887V75.9772Z" fill="#B1DAED"/>
<path d="M67.01 15.2535L50.17 29.9887V33.3305L66.23 19.4027L83.85 34.8331V29.9887L67.01 15.2535Z" fill="#1E9CCF"/>
<path d="M86.53 30.3811L67.01 13.9639L47.51 30.5493L49.41 32.68L67.01 17.2832L84.54 32.6127L86.53 30.3811Z" fill="#B1DAED"/>
<path d="M114.27 75.9773H18.75V78.007H114.27V75.9773Z" fill="#2288C4"/>
<path d="M41.93 57.5751H28.97V75.9884H41.93V57.5751Z" fill="#B1DAED"/>
<path d="M34.97 58.4161H29.91V74.9568H34.97V58.4161Z" fill="#1B7EAF"/>
<path d="M40.95 58.4161H35.89V74.9568H40.95V58.4161Z" fill="#1B7EAF"/>
<path d="M41.94 57.317H28.97H28.85H28.69L28.53 75.9771H28.97V57.5749H41.94V57.317Z" fill="#C4860A"/>
<path d="M107.8 57.5751H89.27V70.0899H107.8V57.5751Z" fill="#B1DAED"/>
<path d="M93.25 58.4161H90.13V69.1031H93.25V58.4161Z" fill="#1B7EAF"/>
<path d="M103.03 58.4161H94.15V69.1031H103.03V58.4161Z" fill="#1B7EAF"/>
<path d="M107.06 58.4161H103.94V69.1031H107.06V58.4161Z" fill="#1B7EAF"/>
<path d="M107.8 57.4069H89.27H89L88.77 70.0786H89.27V57.5751H107.8V57.4069Z" fill="#1E9CCF"/>
<path d="M89.27 69.9777H107.8V70.2692L88.77 71.1776V69.9777H89.27Z" fill="#1E9CCF"/>
<path d="M60.57 58.4161H55.51V74.9568H60.57V58.4161Z" fill="#1B7EAF"/>
<path d="M66.55 58.4161H61.49V74.9568H66.55V58.4161Z" fill="#1B7EAF"/>
<path d="M72.53 58.4161H67.47V74.9568H72.53V58.4161Z" fill="#1B7EAF"/>
<path d="M78.51 58.4161H73.45V74.9568H78.51V58.4161Z" fill="#1B7EAF"/>
<path d="M79.1 57.4069H54.29L53.91 75.9772H54.68V57.5751H79.1V57.4069Z" fill="#1E9CCF"/>
<path d="M66.55 30.2914H61.49V46.832H66.55V30.2914Z" fill="#1B7EAF"/>
<path d="M72.53 30.2914H67.47V46.832H72.53V30.2914Z" fill="#1B7EAF"/>
<path d="M73.35 29.2821H60.32L59.93 47.8524H60.71V29.4391H73.35V29.2821Z" fill="#1E9CCF"/>
<path d="M80.26 47.7404H53.77V49.2655H80.26V47.7404Z" fill="#1B7EAF"/>
<path d="M80.26 49.2655H53.77V47.7404L52.75 49.2655V50.7009L80.26 49.6019V49.2655Z" fill="#1E9CCF"/>
<path d="M55.36 43.58H54.93V47.7403H55.36V43.58Z" fill="#2288C4"/>
<path d="M69.71 43.58H69.28V47.7403H69.71V43.58Z" fill="#2288C4"/>
<path d="M64.92 43.58H64.49V47.7403H64.92V43.58Z" fill="#2288C4"/>
<path d="M74.49 43.58H74.06V47.7403H74.49V43.58Z" fill="#2288C4"/>
<path d="M60.14 43.58H59.71V47.7403H60.14V43.58Z" fill="#2288C4"/>
<path d="M79.27 43.58H78.84V47.7403H79.27V43.58Z" fill="#2288C4"/>
<path d="M55.36 43.58H54.93V43.9724H55.36V43.58Z" fill="#4A938C"/>
<path d="M69.71 43.58H69.28V43.9724H69.71V43.58Z" fill="#4A938C"/>
<path d="M64.92 43.58H64.49V43.9724H64.92V43.58Z" fill="#4A938C"/>
<path d="M74.49 43.58H74.06V43.9724H74.49V43.58Z" fill="#4A938C"/>
<path d="M60.14 43.58H59.71V43.9724H60.14V43.58Z" fill="#4A938C"/>
<path d="M79.27 43.58H78.84V43.9724H79.27V43.58Z" fill="#4A938C"/>
<path d="M79.66 43.58H54.34V42.5259L79.66 42.7614V43.58Z" fill="#2288C4"/>
<path d="M19.98 73.8016H5.26001V74.4408H19.98V73.8016Z" fill="#B6CCD8"/>
<path d="M19.98 76.3921H5.26001V77.0313H19.98V76.3921Z" fill="#B6CCD8"/>
<path d="M6.83004 77.9396H5.83004C5.81609 77.9411 5.80197 77.9394 5.78865 77.9345C5.77534 77.9295 5.76314 77.9215 5.75277 77.911C5.74239 77.9004 5.73411 77.8875 5.72847 77.8731C5.72284 77.8587 5.71998 77.8431 5.72005 77.8274V73.039C5.71449 73.0171 5.71449 72.9938 5.72005 72.9718L6.22005 72.2877C6.24426 72.2616 6.27647 72.2471 6.31002 72.2471C6.34356 72.2471 6.37584 72.2616 6.40004 72.2877L6.90004 72.9718C6.9056 72.9938 6.9056 73.0171 6.90004 73.039V77.7826C6.90639 77.7978 6.90954 77.8146 6.90932 77.8314C6.90911 77.8483 6.90555 77.8649 6.89882 77.88C6.8921 77.8951 6.88241 77.9083 6.8705 77.9186C6.8586 77.9289 6.84476 77.9361 6.83004 77.9396Z" fill="#B1DAED"/>
<path d="M8.91004 77.9395H7.91003C7.84003 77.9395 7.79004 77.9395 7.79004 77.8273V73.039C7.78559 73.0285 7.78326 73.017 7.78326 73.0053C7.78326 72.9937 7.78559 72.9822 7.79004 72.9717L8.29004 72.2876C8.30119 72.2751 8.3144 72.2651 8.32898 72.2583C8.34357 72.2515 8.35921 72.248 8.375 72.248C8.3908 72.248 8.40644 72.2515 8.42102 72.2583C8.43561 72.2651 8.44888 72.2751 8.46002 72.2876L8.96003 72.9717C8.96447 72.9822 8.96674 72.9937 8.96674 73.0053C8.96674 73.017 8.96447 73.0285 8.96003 73.039V77.7825C9.03003 77.8946 8.98004 77.9395 8.91004 77.9395Z" fill="#B1DAED"/>
<path d="M11 77.9396H10C9.98607 77.9411 9.97201 77.9394 9.9587 77.9345C9.94539 77.9295 9.93312 77.9215 9.92275 77.911C9.91238 77.9004 9.9041 77.8875 9.89846 77.8731C9.89282 77.8587 9.88996 77.8431 9.89003 77.8274V73.039C9.88447 73.0171 9.88447 72.9938 9.89003 72.9718L10.39 72.2877C10.4142 72.2616 10.4465 72.2471 10.48 72.2471C10.5135 72.2471 10.5458 72.2616 10.57 72.2877L11.07 72.9718C11.0756 72.9938 11.0756 73.0171 11.07 73.039V77.7826C11.0764 77.7978 11.0796 77.8146 11.0794 77.8314C11.0792 77.8483 11.0755 77.8649 11.0688 77.88C11.0621 77.8951 11.0524 77.9083 11.0405 77.9186C11.0286 77.9289 11.0147 77.9361 11 77.9396Z" fill="#B1DAED"/>
<path d="M13.09 77.9396H12.09C12.0761 77.9411 12.062 77.9394 12.0487 77.9345C12.0354 77.9295 12.0231 77.9215 12.0128 77.911C12.0024 77.9004 11.9941 77.8875 11.9885 77.8731C11.9828 77.8587 11.9799 77.8431 11.98 77.8274V73.039C11.9744 73.0171 11.9744 72.9938 11.98 72.9718L12.48 72.2877C12.5042 72.2616 12.5365 72.2471 12.57 72.2471C12.6036 72.2471 12.6358 72.2616 12.6601 72.2877L13.1601 72.9718C13.1656 72.9938 13.1656 73.0171 13.1601 73.039V77.7826C13.1664 77.7978 13.1695 77.8146 13.1693 77.8314C13.1691 77.8483 13.1655 77.8649 13.1588 77.88C13.152 77.8951 13.1424 77.9083 13.1305 77.9186C13.1186 77.9289 13.1048 77.9361 13.09 77.9396Z" fill="#B1DAED"/>
<path d="M15.18 77.9395H14.18C14.166 77.9411 14.152 77.9393 14.1387 77.9344C14.1254 77.9295 14.1131 77.9215 14.1027 77.9109C14.0924 77.9003 14.0841 77.8874 14.0784 77.873C14.0728 77.8586 14.0699 77.8431 14.07 77.8274V73.039C14.07 73.039 14.07 73.039 14.07 72.9717L14.57 72.2876C14.5812 72.2751 14.5944 72.2651 14.609 72.2583C14.6236 72.2515 14.6392 72.248 14.655 72.248C14.6708 72.248 14.6865 72.2515 14.701 72.2583C14.7156 72.2651 14.7288 72.2751 14.74 72.2876L15.24 72.9717C15.2444 72.9822 15.2468 72.9937 15.2468 73.0053C15.2468 73.017 15.2444 73.0285 15.24 73.039V77.7825C15.2464 77.797 15.25 77.813 15.2504 77.8292C15.2508 77.8455 15.2481 77.8616 15.2424 77.8765C15.2367 77.8915 15.2281 77.9048 15.2173 77.9157C15.2066 77.9266 15.1938 77.9347 15.18 77.9395Z" fill="#B1DAED"/>
<path d="M17.26 77.9396H16.26C16.2461 77.9411 16.232 77.9394 16.2187 77.9345C16.2054 77.9295 16.1931 77.9215 16.1827 77.911C16.1724 77.9004 16.1641 77.8875 16.1584 77.8731C16.1528 77.8587 16.15 77.8431 16.15 77.8274V73.039C16.1456 73.0285 16.1432 73.017 16.1432 73.0054C16.1432 72.9937 16.1456 72.9823 16.15 72.9718L16.64 72.2877C16.6642 72.2616 16.6964 72.2471 16.73 72.2471C16.7635 72.2471 16.7958 72.2616 16.82 72.2877L17.32 72.9718C17.32 72.9718 17.32 72.9718 17.32 73.039V77.7826C17.3264 77.7971 17.33 77.8131 17.3304 77.8293C17.3308 77.8455 17.328 77.8617 17.3223 77.8766C17.3166 77.8915 17.3081 77.9049 17.2974 77.9157C17.2866 77.9266 17.2738 77.9348 17.26 77.9396Z" fill="#B1DAED"/>
<path d="M19.3501 77.9396H18.3501C18.3361 77.9411 18.322 77.9394 18.3087 77.9345C18.2954 77.9295 18.2832 77.9215 18.2728 77.911C18.2624 77.9004 18.2541 77.8875 18.2485 77.8731C18.2429 77.8587 18.2399 77.8431 18.24 77.8274V73.039C18.2344 73.0171 18.2344 72.9938 18.24 72.9718L18.74 72.2877C18.7642 72.2616 18.7965 72.2471 18.83 72.2471C18.8636 72.2471 18.8958 72.2616 18.92 72.2877L19.42 72.9718C19.4256 72.9938 19.4256 73.0171 19.42 73.039V77.7826C19.4263 77.7978 19.4296 77.8146 19.4293 77.8314C19.4291 77.8483 19.4255 77.8649 19.4188 77.88C19.4121 77.8951 19.4024 77.9083 19.3905 77.9186C19.3786 77.9289 19.3648 77.9361 19.3501 77.9396Z" fill="#B1DAED"/>
<path d="M131.98 73.8016H111.11V74.4408H131.98V73.8016Z" fill="#B6CCD8"/>
<path d="M131.98 76.3921H111.11V77.0313H131.98V76.3921Z" fill="#B6CCD8"/>
<path d="M112.68 77.9396H111.68C111.666 77.9411 111.652 77.9394 111.639 77.9345C111.625 77.9295 111.613 77.9215 111.603 77.911C111.592 77.9004 111.584 77.8875 111.578 77.8731C111.573 77.8587 111.57 77.8431 111.57 77.8274V73.039C111.564 73.0171 111.564 72.9938 111.57 72.9718L112.07 72.2877C112.094 72.2616 112.126 72.2471 112.16 72.2471C112.194 72.2471 112.226 72.2616 112.25 72.2877L112.75 72.9718C112.756 72.9938 112.756 73.0171 112.75 73.039V77.7826C112.756 77.7978 112.76 77.8146 112.759 77.8314C112.759 77.8483 112.755 77.8649 112.749 77.88C112.742 77.8951 112.732 77.9083 112.72 77.9186C112.709 77.9289 112.695 77.9361 112.68 77.9396Z" fill="#B1DAED"/>
<path d="M114.76 77.9395H113.76C113.69 77.9395 113.64 77.9395 113.64 77.8273V73.039C113.636 73.0285 113.633 73.017 113.633 73.0053C113.633 72.9937 113.636 72.9822 113.64 72.9717L114.14 72.2876C114.151 72.2751 114.164 72.2651 114.179 72.2583C114.194 72.2515 114.209 72.248 114.225 72.248C114.241 72.248 114.256 72.2515 114.271 72.2583C114.286 72.2651 114.299 72.2751 114.31 72.2876L114.81 72.9717C114.814 72.9822 114.817 72.9937 114.817 73.0053C114.817 73.017 114.814 73.0285 114.81 73.039V77.7825C114.88 77.8946 114.83 77.9395 114.76 77.9395Z" fill="#B1DAED"/>
<path d="M116.85 77.9396H115.85C115.836 77.9411 115.822 77.9394 115.809 77.9345C115.795 77.9295 115.783 77.9215 115.773 77.911C115.762 77.9004 115.754 77.8875 115.748 77.8731C115.743 77.8587 115.74 77.8431 115.74 77.8274V73.039C115.734 73.0171 115.734 72.9938 115.74 72.9718L116.24 72.2877C116.264 72.2616 116.296 72.2471 116.33 72.2471C116.364 72.2471 116.396 72.2616 116.42 72.2877L116.92 72.9718C116.926 72.9938 116.926 73.0171 116.92 73.039V77.7826C116.926 77.7978 116.93 77.8146 116.929 77.8314C116.929 77.8483 116.925 77.8649 116.919 77.88C116.912 77.8951 116.902 77.9083 116.89 77.9186C116.879 77.9289 116.865 77.9361 116.85 77.9396Z" fill="#B1DAED"/>
<path d="M118.94 77.9396H117.94C117.926 77.9411 117.912 77.9394 117.899 77.9345C117.885 77.9295 117.873 77.9215 117.863 77.911C117.852 77.9004 117.844 77.8875 117.838 77.8731C117.833 77.8587 117.83 77.8431 117.83 77.8274V73.039C117.824 73.0171 117.824 72.9938 117.83 72.9718L118.33 72.2877C118.354 72.2616 118.386 72.2471 118.42 72.2471C118.454 72.2471 118.486 72.2616 118.51 72.2877L119.01 72.9718C119.016 72.9938 119.016 73.0171 119.01 73.039V77.7826C119.016 77.7978 119.02 77.8146 119.019 77.8314C119.019 77.8483 119.016 77.8649 119.009 77.88C119.002 77.8951 118.992 77.9083 118.98 77.9186C118.969 77.9289 118.955 77.9361 118.94 77.9396Z" fill="#B1DAED"/>
<path d="M121.03 77.9395H120.03C120.016 77.9411 120.002 77.9393 119.989 77.9344C119.975 77.9295 119.963 77.9215 119.953 77.9109C119.942 77.9003 119.934 77.8874 119.928 77.873C119.923 77.8586 119.92 77.8431 119.92 77.8274V73.039C119.92 73.039 119.92 73.039 119.92 72.9717L120.42 72.2876C120.431 72.2751 120.444 72.2651 120.459 72.2583C120.474 72.2515 120.489 72.248 120.505 72.248C120.521 72.248 120.536 72.2515 120.551 72.2583C120.566 72.2651 120.579 72.2751 120.59 72.2876L121.09 72.9717C121.094 72.9822 121.097 72.9937 121.097 73.0053C121.097 73.017 121.094 73.0285 121.09 73.039V77.7825C121.096 77.797 121.1 77.813 121.1 77.8292C121.101 77.8455 121.098 77.8616 121.092 77.8765C121.087 77.8915 121.078 77.9048 121.067 77.9157C121.057 77.9266 121.044 77.9347 121.03 77.9395Z" fill="#B1DAED"/>
<path d="M123.11 77.9395H122.11C122.096 77.9411 122.082 77.9393 122.069 77.9344C122.055 77.9295 122.043 77.9215 122.033 77.9109C122.022 77.9003 122.014 77.8874 122.008 77.873C122.003 77.8586 122 77.8431 122 77.8274V73.039C121.996 73.0285 121.993 73.017 121.993 73.0053C121.993 72.9937 121.996 72.9822 122 72.9717L122.5 72.2876C122.511 72.2751 122.524 72.2651 122.539 72.2583C122.554 72.2515 122.569 72.248 122.585 72.248C122.601 72.248 122.616 72.2515 122.631 72.2583C122.646 72.2651 122.659 72.2751 122.67 72.2876L123.17 72.9717C123.17 72.9717 123.17 72.9717 123.17 73.039V77.7825C123.176 77.797 123.18 77.813 123.18 77.8292C123.181 77.8455 123.178 77.8616 123.172 77.8765C123.167 77.8915 123.158 77.9048 123.147 77.9157C123.137 77.9266 123.124 77.9347 123.11 77.9395Z" fill="#B1DAED"/>
<path d="M125.2 77.9396H124.2C124.186 77.9411 124.172 77.9394 124.159 77.9345C124.145 77.9295 124.133 77.9215 124.123 77.911C124.112 77.9004 124.104 77.8875 124.098 77.8731C124.093 77.8587 124.09 77.8431 124.09 77.8274V73.039C124.084 73.0171 124.084 72.9938 124.09 72.9718L124.59 72.2877C124.614 72.2616 124.646 72.2471 124.68 72.2471C124.714 72.2471 124.746 72.2616 124.77 72.2877L125.27 72.9718C125.276 72.9938 125.276 73.0171 125.27 73.039V77.7826C125.276 77.7978 125.28 77.8146 125.279 77.8314C125.279 77.8483 125.276 77.8649 125.269 77.88C125.262 77.8951 125.252 77.9083 125.24 77.9186C125.229 77.9289 125.215 77.9361 125.2 77.9396Z" fill="#B1DAED"/>
<path d="M127.29 77.9395H126.29C126.276 77.9411 126.262 77.9393 126.249 77.9344C126.235 77.9295 126.223 77.9215 126.213 77.9109C126.202 77.9003 126.194 77.8874 126.188 77.873C126.183 77.8586 126.18 77.8431 126.18 77.8274V73.039C126.18 73.039 126.18 73.039 126.18 72.9717L126.68 72.2876C126.691 72.2751 126.704 72.2651 126.719 72.2583C126.734 72.2515 126.749 72.248 126.765 72.248C126.781 72.248 126.796 72.2515 126.811 72.2583C126.826 72.2651 126.839 72.2751 126.85 72.2876L127.35 72.9717C127.355 72.9822 127.357 72.9937 127.357 73.0053C127.357 73.017 127.355 73.0285 127.35 73.039V77.7825C127.357 77.797 127.36 77.813 127.36 77.8292C127.361 77.8455 127.358 77.8616 127.352 77.8765C127.347 77.8915 127.338 77.9048 127.327 77.9157C127.317 77.9266 127.304 77.9347 127.29 77.9395Z" fill="#B1DAED"/>
<path d="M129.37 77.9395H128.37C128.356 77.9411 128.342 77.9393 128.329 77.9344C128.315 77.9295 128.303 77.9215 128.293 77.9109C128.282 77.9003 128.274 77.8874 128.268 77.873C128.263 77.8586 128.26 77.8431 128.26 77.8274V73.039C128.256 73.0285 128.253 73.017 128.253 73.0053C128.253 72.9937 128.256 72.9822 128.26 72.9717L128.76 72.2876C128.771 72.2751 128.784 72.2651 128.799 72.2583C128.814 72.2515 128.829 72.248 128.845 72.248C128.861 72.248 128.876 72.2515 128.891 72.2583C128.906 72.2651 128.919 72.2751 128.93 72.2876L129.43 72.9717C129.43 72.9717 129.43 72.9717 129.43 73.039V77.7825C129.436 77.797 129.44 77.813 129.44 77.8292C129.441 77.8455 129.438 77.8616 129.432 77.8765C129.427 77.8915 129.418 77.9048 129.407 77.9157C129.397 77.9266 129.384 77.9347 129.37 77.9395Z" fill="#B1DAED"/>
<path d="M131.46 77.9396H130.46C130.446 77.9411 130.432 77.9394 130.419 77.9345C130.405 77.9295 130.393 77.9215 130.383 77.911C130.372 77.9004 130.364 77.8875 130.358 77.8731C130.353 77.8587 130.35 77.8431 130.35 77.8274V73.039C130.344 73.0171 130.344 72.9938 130.35 72.9718L130.85 72.2877C130.874 72.2616 130.906 72.2471 130.94 72.2471C130.974 72.2471 131.006 72.2616 131.03 72.2877L131.53 72.9718C131.536 72.9938 131.536 73.0171 131.53 73.039V77.7826C131.536 77.7978 131.54 77.8146 131.539 77.8314C131.539 77.8483 131.535 77.8649 131.529 77.88C131.522 77.8951 131.512 77.9083 131.5 77.9186C131.489 77.9289 131.475 77.9361 131.46 77.9396Z" fill="#B1DAED"/>
<path d="M134.01 77.7712H3.90002V78.2534H134.01V77.7712Z" fill="#1B7EAF"/>
</svg>
