<svg width="177" height="72" viewBox="0 0 177 72" fill="none" xmlns="http://www.w3.org/2000/svg">
<path d="M145.63 40.3834H170.92C170.79 39.8788 170.13 38.1406 166.75 38.8247C167.04 38.558 167.262 38.2102 167.394 37.8163C167.526 37.4225 167.562 36.9967 167.5 36.5819C167.464 36.3373 167.363 36.1107 167.21 35.9315C167.064 35.7794 166.89 35.6645 166.7 35.595C165.37 35.0568 163.03 37.1202 163.03 37.1202C165.89 32.0851 158.1 29.9657 158.03 36.3464C158.03 36.3464 156.89 34.1036 155.64 34.6867C155.13 35.0119 155.45 35.9987 155.64 36.4249C151.99 34.44 148.64 35.6624 150.22 37.9276C146.67 38.0061 145.63 40.3834 145.63 40.3834Z" fill="#EAEAEA"/>
<path d="M97.4 28.2725H112.7C112.62 27.9697 112.22 26.9268 110.17 27.3305C110.342 27.1705 110.474 26.9639 110.555 26.7303C110.635 26.4968 110.661 26.244 110.63 25.996C110.605 25.8484 110.543 25.712 110.45 25.6036C110.362 25.5106 110.256 25.4415 110.14 25.4017C109.34 25.0765 107.92 26.3325 107.92 26.3325C109.65 23.2822 104.92 22.0039 104.92 25.8615C104.92 25.8615 104.23 24.471 103.47 24.8523C103.16 25.0541 103.35 25.6485 103.47 25.9064C101.26 24.7065 99.25 25.4466 100.19 26.8147C99.6516 26.7596 99.1097 26.8655 98.6197 27.1216C98.1296 27.3776 97.7088 27.7748 97.4 28.2725Z" fill="#EAEAEA"/>
<path d="M107.94 33.6215H103.56V42.716H107.94V33.6215Z" fill="#D0D0D0"/>
<path d="M103.56 35.9203V36.795L107.94 36.2343V35.9203H103.56Z" fill="#7C7C7C"/>
<path d="M108.46 34.8213H103.05V35.9203H108.46V34.8213Z" fill="#878787"/>
<path d="M161.26 71.0984H175.84C175.733 70.7401 175.557 70.4122 175.326 70.1373C175.095 69.8624 174.813 69.6469 174.5 69.506C173.85 69.2687 173.15 69.2687 172.5 69.506C172.62 69.506 172.79 69.2145 172.87 69.1136C173.085 68.8804 173.232 68.5791 173.29 68.2501C173.317 68.0531 173.307 67.8522 173.263 67.6594C173.218 67.4667 173.139 67.286 173.03 67.1287C172.837 66.8901 172.595 66.7082 172.325 66.5987C172.054 66.4892 171.764 66.4556 171.48 66.5007H171.4C171.291 66.5224 171.183 66.5562 171.08 66.6016C170.632 66.8088 170.229 67.1226 169.9 67.5212L169.71 67.7343C170.183 67.3055 170.58 66.7805 170.88 66.1867C171.061 65.6853 171.113 65.1373 171.031 64.6044C170.949 64.0714 170.736 63.5748 170.416 63.1704C170.096 62.7659 169.681 62.4697 169.219 62.3152C168.757 62.1606 168.265 62.1537 167.8 62.2954C166.926 62.7665 166.22 63.5576 165.8 64.5382C167.53 61.6226 164.66 59.8621 163.64 62.4749C164.27 60.3218 163.33 58.0678 161.43 59.335H161.35L161.26 71.0984Z" fill="#7C7C7C"/>
<path d="M161.26 71.0986H169.85C169.79 70.8865 169.687 70.6925 169.551 70.5312C169.414 70.37 169.246 70.2457 169.06 70.1679C168.671 70.0217 168.249 70.0217 167.86 70.1679C167.939 69.9402 167.935 69.6868 167.849 69.4623C167.763 69.2378 167.602 69.0602 167.4 68.9679C167.202 68.9048 166.995 68.8892 166.792 68.9221C166.589 68.9549 166.394 69.0355 166.22 69.1586C166.546 68.9621 166.793 68.6332 166.91 68.2391C167.004 67.9457 167.025 67.629 166.971 67.3232C166.917 67.0174 166.789 66.734 166.602 66.5034C166.415 66.2728 166.175 66.1037 165.909 66.0144C165.642 65.925 165.359 65.9188 165.09 65.9963C164.565 66.2667 164.139 66.7294 163.88 67.3083C164.88 65.6038 163.21 64.5609 162.61 66.0972C163.2 64.4151 162.07 63.4282 161.26 63.8544V71.0986Z" fill="#707070"/>
<path d="M170.17 61.8917C170.009 62.0351 169.806 62.1069 169.6 62.0936C169.626 61.8534 169.721 61.6292 169.87 61.4544C170.031 61.3101 170.234 61.2381 170.44 61.2526C170.414 61.4927 170.319 61.7169 170.17 61.8917Z" fill="#7C7C7C"/>
<path d="M163.54 64.5945C163.417 64.8151 163.224 64.9752 163 65.0431C162.951 64.7712 162.979 64.4888 163.08 64.2357C163.203 64.0152 163.396 63.8549 163.62 63.7871C163.67 64.059 163.642 64.3415 163.54 64.5945Z" fill="#707070"/>
<path d="M169.47 60.9724C169.514 61.306 169.465 61.6468 169.33 61.948C169.098 61.7516 168.93 61.4762 168.85 61.1631C168.8 60.827 168.846 60.4818 168.98 60.1763C169.218 60.3726 169.391 60.653 169.47 60.9724Z" fill="#7C7C7C"/>
<path d="M91.7701 71.0536L92.0001 67.4203L90.2001 65.0878L90.3101 64.9868L91.3701 65.9961L91.5301 64.9868L91.6901 65.0317L91.6601 66.2989L92.1001 66.7699L92.2601 63.0468L91.3801 61.8245L91.4801 61.7348L92.3901 62.5534L92.4501 60.6022H92.6801L92.8401 63.002L93.0701 65.3793L94.26 63.9327L94.3701 64.0112L93.9401 64.785L94.6901 64.7626V64.9083L93.8701 65.0541L93.0601 66.4671L93.2401 71.0536H91.7701Z" fill="#676767"/>
<path d="M99.4501 57.8884C99.4786 57.4332 99.4136 56.9766 99.2601 56.554C99.1814 56.3441 99.0584 56.1589 98.9016 56.0143C98.7448 55.8697 98.5589 55.7701 98.3601 55.7241C98.245 55.7 98.1263 55.71 98.0157 55.7533C97.9052 55.7966 97.8067 55.8716 97.7301 55.9709C98.1915 55.3545 98.5322 54.6362 98.7301 53.8627C98.826 53.4814 98.8416 53.0802 98.7757 52.691C98.7097 52.3018 98.564 51.9351 98.3501 51.6199C98.1181 51.3283 97.824 51.1074 97.4952 50.9779C97.1664 50.8485 96.8137 50.8147 96.4701 50.8797C95.7826 51.0053 95.1582 51.4032 94.7101 52.0011C94.8679 50.7946 94.9015 49.5717 94.8101 48.3566C94.6101 47.1567 93.8101 45.9568 92.6801 46.0129C92.3153 46.0724 91.9654 46.2156 91.6522 46.4337C91.3391 46.6517 91.0694 46.9398 90.8601 47.2801C89.8865 48.6157 89.2942 50.249 89.1601 51.9675C88.899 51.5163 88.5826 51.1086 88.2201 50.7564C88.0361 50.582 87.8225 50.4514 87.5921 50.3724C87.3618 50.2934 87.1195 50.2676 86.8801 50.2966C86.5012 50.4241 86.1626 50.6701 85.904 51.0058C85.6454 51.3414 85.4775 51.7529 85.4201 52.1918C85.2213 53.1136 85.2489 54.0785 85.5001 54.9841C86.0312 56.4337 86.8483 57.7296 87.8901 58.7744C87.6607 58.686 87.4104 58.6942 87.186 58.7973C86.9616 58.9005 86.7782 59.0916 86.6701 59.3351C86.5607 59.6697 86.5394 60.0325 86.6085 60.3804C86.6776 60.7282 86.8344 61.0466 87.0601 61.2975C87.4166 61.7268 87.8446 62.0735 88.3201 62.318C89.6414 63.0025 91.0795 63.3571 92.5351 63.3571C93.9906 63.3571 95.4288 63.0025 96.7501 62.318C97.696 61.8546 98.4698 61.0384 98.9401 60.0079C99.2555 59.3558 99.4302 58.6299 99.4501 57.8884Z" fill="#7C7C7C"/>
<path d="M91.0501 64.0561C90.9301 63.8991 90.5701 63.843 90.5801 64.1234C90.4701 63.2375 89.43 63.5739 89.9101 64.4262C89.11 63.4954 88.4001 64.6841 89.4401 65.2224C88.5601 65.2224 89.05 66.6577 89.8201 66.041C89.7638 66.0852 89.7228 66.1498 89.7039 66.224C89.685 66.2981 89.6894 66.3773 89.7163 66.4482C89.7433 66.5191 89.7911 66.5775 89.8519 66.6136C89.9126 66.6497 89.9826 66.6613 90.0501 66.6465C90.9401 66.4895 91.8601 64.8859 91.0501 64.0561Z" fill="#7C7C7C"/>
<path d="M89.4901 61.4209C89.4009 61.1878 89.3698 60.932 89.4001 60.6807C89.4094 60.5538 89.4474 60.4317 89.5103 60.3258C89.5733 60.2199 89.6592 60.1336 89.7601 60.0752C89.8172 60.0418 89.8806 60.0243 89.9451 60.0243C90.0095 60.0243 90.0729 60.0418 90.1301 60.0752C89.7862 59.843 89.4953 59.5243 89.2801 59.1444C89.1689 58.9564 89.0991 58.7414 89.0765 58.5172C89.0539 58.293 89.0791 58.066 89.1501 57.8548C89.2329 57.6601 89.3576 57.4915 89.513 57.3643C89.6683 57.237 89.8494 57.1551 90.0401 57.1259C90.4271 57.0781 90.8167 57.1854 91.1401 57.4287C90.8877 56.815 90.6965 56.1719 90.5701 55.5111C90.5179 55.1784 90.5689 54.8357 90.7144 54.5399C90.8599 54.2441 91.0913 54.013 91.3701 53.885C91.5728 53.8505 91.7797 53.8636 91.9776 53.9234C92.1756 53.9833 92.3603 54.0886 92.5201 54.2327C93.2308 54.7641 93.7788 55.5274 94.0901 56.4194C94.1678 56.1351 94.2787 55.8636 94.4201 55.612C94.492 55.4861 94.5857 55.3775 94.6956 55.2928C94.8055 55.2081 94.9295 55.1488 95.0601 55.1186C95.2807 55.1189 95.4966 55.1898 95.6826 55.3229C95.8686 55.4559 96.0169 55.6457 96.1101 55.8699C96.3488 56.3252 96.4732 56.8445 96.4701 57.3726C96.3917 58.2347 96.1422 59.0661 95.7401 59.8061C95.851 59.7199 95.9859 59.6815 96.12 59.698C96.2542 59.7145 96.3785 59.7847 96.4701 59.8958C96.5784 60.0545 96.6427 60.2453 96.6552 60.4446C96.6676 60.644 96.6276 60.8431 96.5401 61.0172C96.4077 61.3097 96.228 61.5721 96.0101 61.7909C95.4028 62.386 94.6883 62.8273 93.9152 63.0847C93.142 63.3421 92.3285 63.4095 91.5301 63.2824C90.9589 63.2032 90.4293 62.9062 90.0301 62.4413C89.7777 62.1563 89.5922 61.8058 89.4901 61.4209Z" fill="#707070"/>
<path d="M86.5201 58.3258C86.6085 58.5397 86.6296 58.7808 86.5801 59.0099C86.3843 58.9276 86.2164 58.7785 86.1001 58.5837C86.0117 58.3698 85.9906 58.1287 86.0401 57.8997C86.2359 57.9819 86.4038 58.131 86.5201 58.3258Z" fill="#7C7C7C"/>
<path d="M85.6201 59.0099C85.9114 59.0163 86.1927 59.1307 86.42 59.3351C86.2164 59.5667 85.9482 59.7131 85.66 59.7501C85.3725 59.7496 85.0937 59.6387 84.8701 59.436C85.0715 59.2054 85.3351 59.0557 85.6201 59.0099Z" fill="#7C7C7C"/>
<path d="M94.98 65.1888C94.8799 65.134 94.799 65.0432 94.7501 64.9309C94.857 64.8899 94.9731 64.8899 95.08 64.9309C95.1796 64.9919 95.26 65.0859 95.3101 65.2C95.2016 65.2343 95.0864 65.2304 94.98 65.1888Z" fill="#7C7C7C"/>
<path d="M95.17 64.5832C95.0465 64.6882 94.895 64.7435 94.7401 64.7402C94.7554 64.5706 94.8225 64.4122 94.9301 64.2916C95.0537 64.1856 95.2044 64.1266 95.36 64.1234C95.3453 64.2965 95.2783 64.4587 95.17 64.5832Z" fill="#7C7C7C"/>
<path d="M94.93 54.5692C94.7784 54.7316 94.5795 54.8272 94.3701 54.8383C94.3747 54.603 94.4525 54.3768 94.59 54.1991C94.7427 54.0383 94.9409 53.943 95.15 53.9299C95.1454 54.1653 95.0676 54.3914 94.93 54.5692Z" fill="#707070"/>
<path d="M89.69 56.5539C89.8213 56.6231 89.9297 56.7369 90 56.8792C89.8611 56.9357 89.7089 56.9357 89.57 56.8792C89.4404 56.8114 89.3348 56.6969 89.27 56.5539C89.4054 56.4972 89.5546 56.4972 89.69 56.5539Z" fill="#707070"/>
<path d="M94.12 53.8403C94.2153 54.1452 94.2153 54.4774 94.12 54.7823C93.8634 54.6341 93.659 54.393 93.54 54.0982C93.4582 53.7873 93.4759 53.4541 93.59 53.1562C93.8298 53.3115 94.0164 53.5523 94.12 53.8403Z" fill="#707070"/>
<path d="M90.53 66.1755H90.3C90.191 66.1616 90.0908 66.1014 90.02 66.0073C89.9883 65.9664 89.9662 65.9173 89.9558 65.8644C89.9453 65.8116 89.9468 65.7566 89.96 65.7046C89.96 65.5588 90.18 65.5924 90.25 65.4803C90.2642 65.447 90.2716 65.4106 90.2716 65.3737C90.2716 65.3368 90.2642 65.3005 90.25 65.2672C90.2352 65.1896 90.2352 65.1093 90.25 65.0317C90.259 64.9952 90.2787 64.9632 90.3059 64.9408C90.3331 64.9184 90.3663 64.907 90.4 64.9084C90.45 64.9084 90.48 64.9756 90.51 65.0205C90.5359 65.0307 90.5642 65.0307 90.59 65.0205C90.72 65.0205 90.74 64.7962 90.88 64.8299C91.02 64.8635 91.09 65.0205 91.13 65.1551C91.1677 65.2716 91.1773 65.3972 91.158 65.5192C91.1387 65.6412 91.0911 65.7555 91.02 65.8503C90.962 65.9386 90.8886 66.0128 90.8045 66.0687C90.7203 66.1245 90.627 66.1609 90.53 66.1755Z" fill="#707070"/>
<path d="M146.18 30.717L115.17 30.1227L97.2001 49.5004H111.01H149.79H163.59L146.18 30.717Z" fill="#878787"/>
<path d="M162.05 49.5005H141.9V69.7193H162.05V49.5005Z" fill="#D0D0D0"/>
<path d="M162.05 49.5005H159.85V69.7193H162.05V49.5005Z" fill="#A8A8A8"/>
<path d="M144.1 49.5005H141.9V69.7193H144.1V49.5005Z" fill="#A8A8A8"/>
<path d="M159.86 52.4272H144.11V52.674H159.86V52.4272Z" fill="#E9E9E9"/>
<path d="M159.86 55.2756H144.11V55.5223H159.86V55.2756Z" fill="#E9E9E9"/>
<path d="M159.86 58.124H144.11V58.3707H159.86V58.124Z" fill="#E9E9E9"/>
<path d="M159.86 60.9724H144.11V61.2191H159.86V60.9724Z" fill="#E9E9E9"/>
<path d="M159.86 63.8208H144.11V64.0675H159.86V63.8208Z" fill="#E9E9E9"/>
<path d="M159.86 66.6689H144.11V66.9156H159.86V66.6689Z" fill="#E9E9E9"/>
<path d="M144.1 52.4272H141.9V52.674H144.1V52.4272Z" fill="#8B8B8B"/>
<path d="M144.1 55.2756H141.9V55.5223H144.1V55.2756Z" fill="#8B8B8B"/>
<path d="M144.1 58.124H141.9V58.3707H144.1V58.124Z" fill="#8B8B8B"/>
<path d="M144.1 60.9724H141.9V61.2191H144.1V60.9724Z" fill="#8B8B8B"/>
<path d="M144.1 63.8208H141.9V64.0675H144.1V63.8208Z" fill="#8B8B8B"/>
<path d="M144.1 66.6689H141.9V66.9156H144.1V66.6689Z" fill="#8B8B8B"/>
<path d="M162.05 52.4272H159.85V52.674H162.05V52.4272Z" fill="#8B8B8B"/>
<path d="M162.05 55.2756H159.85V55.5223H162.05V55.2756Z" fill="#8B8B8B"/>
<path d="M162.05 58.124H159.85V58.3707H162.05V58.124Z" fill="#8B8B8B"/>
<path d="M162.05 60.9724H159.85V61.2191H162.05V60.9724Z" fill="#8B8B8B"/>
<path d="M162.05 63.8208H159.85V64.0675H162.05V63.8208Z" fill="#8B8B8B"/>
<path d="M162.05 66.6689H159.85V66.9156H162.05V66.6689Z" fill="#8B8B8B"/>
<path d="M118.89 49.5005H98.7401V69.7193H118.89V49.5005Z" fill="#D0D0D0"/>
<path d="M118.72 52.4272H98.7401V52.674H118.72V52.4272Z" fill="#E9E9E9"/>
<path d="M118.72 55.2756H98.7401V55.5223H118.72V55.2756Z" fill="#E9E9E9"/>
<path d="M118.72 58.124H98.7401V58.3707H118.72V58.124Z" fill="#E9E9E9"/>
<path d="M118.72 60.9724H98.7401V61.2191H118.72V60.9724Z" fill="#E9E9E9"/>
<path d="M118.72 63.8208H98.7401V64.0675H118.72V63.8208Z" fill="#E9E9E9"/>
<path d="M118.72 66.6689H98.7401V66.9156H118.72V66.6689Z" fill="#E9E9E9"/>
<path d="M115.45 53.6609H102.18V69.7193H115.45V53.6609Z" fill="#A8A8A8"/>
<path d="M115.45 54.3674L102.18 56.7784V53.6609H115.45V54.3674Z" fill="#8B8B8B"/>
<path d="M118.89 69.7193H118.01L118.56 49.5005H118.89V69.7193Z" fill="#7C7C7C"/>
<path d="M118.89 49.8369L98.7401 51.0705V49.5005H118.89V49.8369Z" fill="#7C7C7C"/>
<path d="M144.11 49.5005V50.9359L159.85 49.9715V49.5005H144.11Z" fill="#7C7C7C"/>
<path d="M159.85 49.5005V49.9715L162.06 49.8369V49.5005H159.85Z" fill="#8B8B8B"/>
<path d="M141.91 49.5005V51.0705L144.11 50.9359V49.5005H141.91Z" fill="#8B8B8B"/>
<path d="M141.91 69.7192H118.89V38.2865L130.4 28.2163L141.91 38.2865V69.7192Z" fill="#D0D0D0"/>
<path d="M130.4 28.2163L118.89 38.2865V40.5629L129.86 31.0534L141.91 41.5946V38.2865L130.4 28.2163Z" fill="#7C7C7C"/>
<path d="M143.73 38.5556L130.4 27.3304L117.07 38.6678L118.37 40.1256L130.4 29.6069L142.37 40.0807L143.73 38.5556Z" fill="#D0D0D0"/>
<path d="M162.68 69.7192H97.41V71.1098H162.68V69.7192Z" fill="#707070"/>
<path d="M113.26 57.1371H104.4V69.7192H113.26V57.1371Z" fill="#D0D0D0"/>
<path d="M108.5 57.709H105.04V69.0127H108.5V57.709Z" fill="#878787"/>
<path d="M112.59 57.709H109.13V69.0127H112.59V57.709Z" fill="#878787"/>
<path d="M113.26 56.9576H104.4H104.32H104.21L104.1 69.7191H104.4V57.1371H113.26V56.9576Z" fill="#8B8B8B"/>
<path d="M158.27 57.1371H145.61V65.6934H158.27V57.1371Z" fill="#D0D0D0"/>
<path d="M148.33 57.709H146.2V65.0205H148.33V57.709Z" fill="#878787"/>
<path d="M155.02 57.709H148.95V65.0205H155.02V57.709Z" fill="#878787"/>
<path d="M157.76 57.709H155.63V65.0205H157.76V57.709Z" fill="#878787"/>
<path d="M158.27 57.025H145.61H145.42L145.27 65.6822H145.61V57.1372H158.27V57.025Z" fill="#7C7C7C"/>
<path d="M145.61 65.6147H158.27V65.8166L145.27 66.4334V65.6147H145.61Z" fill="#7C7C7C"/>
<path d="M126 57.709H122.54V69.0127H126V57.709Z" fill="#878787"/>
<path d="M130.09 57.709H126.63V69.0127H130.09V57.709Z" fill="#878787"/>
<path d="M134.17 57.709H130.71V69.0127H134.17V57.709Z" fill="#878787"/>
<path d="M138.26 57.709H134.8V69.0127H138.26V57.709Z" fill="#878787"/>
<path d="M138.66 57.025H121.7L121.44 69.7192H121.97V57.1372H138.66V57.025Z" fill="#7C7C7C"/>
<path d="M130.09 38.4883H126.63V49.7919H130.09V38.4883Z" fill="#878787"/>
<path d="M134.17 38.4883H130.71V49.7919H134.17V38.4883Z" fill="#878787"/>
<path d="M134.73 37.8042H125.82L125.56 50.4984H126.09V37.9163H134.73V37.8042Z" fill="#7C7C7C"/>
<path d="M139.45 50.4087H121.35V51.4516H139.45V50.4087Z" fill="#878787"/>
<path d="M139.45 51.4516H121.35V50.4199L120.65 51.4516V52.4384L139.45 51.6871V51.4516Z" fill="#7C7C7C"/>
<path d="M122.43 47.5715H122.14V50.4087H122.43V47.5715Z" fill="#707070"/>
<path d="M132.23 47.5715H131.94V50.4087H132.23V47.5715Z" fill="#707070"/>
<path d="M128.97 47.5715H128.68V50.4087H128.97V47.5715Z" fill="#707070"/>
<path d="M135.5 47.5715H135.21V50.4087H135.5V47.5715Z" fill="#707070"/>
<path d="M125.7 47.5715H125.41V50.4087H125.7V47.5715Z" fill="#707070"/>
<path d="M138.77 47.5715H138.48V50.4087H138.77V47.5715Z" fill="#707070"/>
<path d="M122.43 47.5715H122.14V47.8407H122.43V47.5715Z" fill="#7C7C7C"/>
<path d="M132.23 47.5715H131.94V47.8407H132.23V47.5715Z" fill="#7C7C7C"/>
<path d="M128.97 47.5715H128.68V47.8407H128.97V47.5715Z" fill="#7C7C7C"/>
<path d="M135.5 47.5715H135.21V47.8407H135.5V47.5715Z" fill="#7C7C7C"/>
<path d="M125.7 47.5715H125.41V47.8407H125.7V47.5715Z" fill="#7C7C7C"/>
<path d="M138.77 47.5715H138.48V47.8407H138.77V47.5715Z" fill="#7C7C7C"/>
<path d="M139.04 47.5716H121.73V46.8539L139.04 47.0221V47.5716Z" fill="#707070"/>
<path d="M98.2601 68.2278H88.2001V68.6651H98.2601V68.2278Z" fill="#C7C7C7"/>
<path d="M98.2601 69.9995H88.2001V70.4369H98.2601V69.9995Z" fill="#C7C7C7"/>
<path d="M89.27 71.0537H88.59C88.58 71.0553 88.5698 71.0545 88.5602 71.0512C88.5505 71.048 88.5415 71.0425 88.5339 71.0351C88.5263 71.0276 88.5202 71.0184 88.5161 71.0081C88.512 70.9977 88.5099 70.9865 88.51 70.9752V67.7007L88.85 67.241C88.8575 67.2314 88.8668 67.2237 88.8771 67.2185C88.8875 67.2133 88.8987 67.2106 88.91 67.2106C88.9214 67.2106 88.9326 67.2133 88.9429 67.2185C88.9533 67.2237 88.9625 67.2314 88.97 67.241L89.3101 67.7007V70.9752C89.3102 70.991 89.3065 71.0067 89.2995 71.0205C89.2925 71.0343 89.2823 71.0457 89.27 71.0537Z" fill="#D0D0D0"/>
<path d="M90.7 71.0537H90.05C90.0315 71.0537 90.0137 71.0454 90.0005 71.0307C89.9874 71.0159 89.98 70.996 89.98 70.9751V67.7007L90.32 67.2409C90.3263 67.2293 90.3351 67.2197 90.3456 67.213C90.3561 67.2063 90.368 67.2029 90.38 67.2029C90.3921 67.2029 90.404 67.2063 90.4145 67.213C90.425 67.2197 90.4338 67.2293 90.4401 67.2409L90.79 67.7007V70.9751C90.7905 70.9876 90.7883 71.0001 90.7836 71.0115C90.7789 71.0228 90.7719 71.0327 90.7631 71.0404C90.7543 71.0481 90.744 71.0533 90.733 71.0556C90.722 71.0579 90.7107 71.0572 90.7 71.0537Z" fill="#D0D0D0"/>
<path d="M92.1201 71.0537H91.4401C91.4205 71.0539 91.4015 71.0459 91.3867 71.0315C91.372 71.017 91.3625 70.997 91.36 70.9752V67.7007L91.7 67.2409C91.7063 67.2293 91.7151 67.2197 91.7256 67.213C91.7361 67.2063 91.748 67.2029 91.76 67.2029C91.7721 67.2029 91.784 67.2063 91.7945 67.213C91.805 67.2197 91.8138 67.2293 91.82 67.2409L92.16 67.7007V70.9752C92.1602 70.9911 92.1565 71.0067 92.1495 71.0205C92.1425 71.0343 92.1323 71.0457 92.1201 71.0537Z" fill="#D0D0D0"/>
<path d="M93.5501 71.0537H92.8701C92.8601 71.0553 92.8499 71.0545 92.8402 71.0512C92.8305 71.048 92.8216 71.0425 92.814 71.0351C92.8064 71.0276 92.8003 71.0184 92.7961 71.0081C92.792 70.9977 92.7899 70.9865 92.79 70.9752V67.7007L93.13 67.241C93.1376 67.2314 93.1468 67.2237 93.1571 67.2185C93.1675 67.2133 93.1787 67.2106 93.1901 67.2106C93.2014 67.2106 93.2126 67.2133 93.223 67.2185C93.2333 67.2237 93.2426 67.2314 93.2501 67.241L93.5901 67.7007V70.9752C93.5914 70.9913 93.5883 71.0075 93.5812 71.0215C93.574 71.0356 93.5631 71.0468 93.5501 71.0537Z" fill="#D0D0D0"/>
<path d="M94.9701 71.0537H94.2901C94.2715 71.0537 94.2537 71.0454 94.2406 71.0307C94.2274 71.016 94.2201 70.996 94.2201 70.9752V67.7007L94.5601 67.2409C94.5663 67.2293 94.5751 67.2197 94.5856 67.213C94.5961 67.2063 94.608 67.2029 94.6201 67.2029C94.6322 67.2029 94.644 67.2063 94.6545 67.213C94.6651 67.2197 94.6739 67.2293 94.6801 67.2409L95.0201 67.7007V70.9752C95.0207 70.9926 95.0162 71.0098 95.0071 71.024C94.9981 71.0383 94.985 71.0487 94.9701 71.0537Z" fill="#D0D0D0"/>
<path d="M96.4001 71.0537H95.72C95.7004 71.0539 95.6815 71.046 95.6667 71.0315C95.652 71.017 95.6425 70.997 95.64 70.9752V67.7007L95.98 67.241C95.9875 67.2314 95.9968 67.2237 96.0071 67.2185C96.0175 67.2133 96.0287 67.2106 96.04 67.2106C96.0514 67.2106 96.0626 67.2133 96.073 67.2185C96.0833 67.2237 96.0925 67.2314 96.1 67.241L96.4401 67.7007V70.9752C96.4402 70.9911 96.4365 71.0067 96.4295 71.0205C96.4225 71.0343 96.4123 71.0458 96.4001 71.0537Z" fill="#D0D0D0"/>
<path d="M97.8301 71.0537H97.1401C97.1215 71.0537 97.1037 71.0454 97.0906 71.0307C97.0774 71.016 97.0701 70.996 97.0701 70.9752V67.7007L97.4201 67.2409C97.4263 67.2293 97.4351 67.2197 97.4456 67.213C97.4561 67.2063 97.468 67.2029 97.4801 67.2029C97.4922 67.2029 97.504 67.2063 97.5146 67.213C97.5251 67.2197 97.5338 67.2293 97.5401 67.2409L97.8801 67.7007V70.9752C97.8807 70.9926 97.8762 71.0098 97.8671 71.024C97.858 71.0383 97.845 71.0487 97.8301 71.0537Z" fill="#D0D0D0"/>
<path d="M174.8 68.2278H160.54V68.6651H174.8V68.2278Z" fill="#C7C7C7"/>
<path d="M174.8 69.9995H160.54V70.4369H174.8V69.9995Z" fill="#C7C7C7"/>
<path d="M161.61 71.0537H160.92C160.901 71.0537 160.884 71.0454 160.871 71.0307C160.857 71.016 160.85 70.996 160.85 70.9752V67.7007L161.19 67.241C161.198 67.2314 161.207 67.2237 161.217 67.2185C161.227 67.2133 161.239 67.2106 161.25 67.2106C161.261 67.2106 161.273 67.2133 161.283 67.2185C161.293 67.2237 161.303 67.2314 161.31 67.241L161.66 67.7007V70.9752C161.661 70.9927 161.656 71.0099 161.647 71.0241C161.638 71.0383 161.625 71.0487 161.61 71.0537Z" fill="#D0D0D0"/>
<path d="M163.05 71.0537H162.37C162.35 71.0539 162.331 71.0459 162.317 71.0315C162.302 71.017 162.292 70.997 162.29 70.9752V67.7007L162.63 67.2409C162.636 67.2293 162.645 67.2197 162.656 67.213C162.666 67.2063 162.678 67.2029 162.69 67.2029C162.702 67.2029 162.714 67.2063 162.725 67.213C162.735 67.2197 162.744 67.2293 162.75 67.2409L163.09 67.7007V70.9752C163.09 70.9911 163.087 71.0067 163.08 71.0205C163.072 71.0343 163.062 71.0457 163.05 71.0537Z" fill="#D0D0D0"/>
<path d="M164.46 71.0537H163.78C163.77 71.0553 163.76 71.0545 163.75 71.0512C163.741 71.048 163.732 71.0425 163.724 71.0351C163.716 71.0276 163.71 71.0184 163.706 71.0081C163.702 70.9977 163.7 70.9865 163.7 70.9752V67.7007L164.04 67.241C164.048 67.2314 164.057 67.2237 164.067 67.2185C164.078 67.2133 164.089 67.2106 164.1 67.2106C164.111 67.2106 164.123 67.2133 164.133 67.2185C164.143 67.2237 164.153 67.2314 164.16 67.241L164.5 67.7007V70.9752C164.501 70.9913 164.498 71.0075 164.491 71.0215C164.484 71.0356 164.473 71.0468 164.46 71.0537Z" fill="#D0D0D0"/>
<path d="M165.88 71.0537H165.2C165.181 71.0537 165.164 71.0454 165.151 71.0307C165.137 71.016 165.13 70.996 165.13 70.9752V67.7007L165.47 67.2409C165.476 67.2293 165.485 67.2197 165.496 67.213C165.506 67.2063 165.518 67.2029 165.53 67.2029C165.542 67.2029 165.554 67.2063 165.564 67.213C165.575 67.2197 165.584 67.2293 165.59 67.2409L165.93 67.7007V70.9752C165.931 70.9926 165.926 71.0098 165.917 71.024C165.908 71.0383 165.895 71.0487 165.88 71.0537Z" fill="#D0D0D0"/>
<path d="M167.31 71.0537H166.63C166.61 71.0539 166.591 71.046 166.577 71.0315C166.562 71.017 166.552 70.997 166.55 70.9752V67.7007L166.89 67.241C166.898 67.2314 166.907 67.2237 166.917 67.2185C166.927 67.2133 166.939 67.2106 166.95 67.2106C166.961 67.2106 166.973 67.2133 166.983 67.2185C166.993 67.2237 167.003 67.2314 167.01 67.241L167.35 67.7007V70.9752C167.35 70.9911 167.347 71.0067 167.34 71.0205C167.332 71.0343 167.322 71.0458 167.31 71.0537Z" fill="#D0D0D0"/>
<path d="M168.74 71.0537H168.05C168.031 71.0537 168.014 71.0454 168.001 71.0307C167.987 71.016 167.98 70.996 167.98 70.9752V67.7007L168.33 67.2409C168.336 67.2293 168.345 67.2197 168.356 67.213C168.366 67.2063 168.378 67.2029 168.39 67.2029C168.402 67.2029 168.414 67.2063 168.425 67.213C168.435 67.2197 168.444 67.2293 168.45 67.2409L168.79 67.7007V70.9752C168.791 70.9926 168.786 71.0098 168.777 71.024C168.768 71.0383 168.755 71.0487 168.74 71.0537Z" fill="#D0D0D0"/>
<path d="M170.16 71.0537H169.48C169.46 71.0539 169.441 71.0459 169.427 71.0315C169.412 71.017 169.402 70.997 169.4 70.9752V67.7007L169.74 67.2409C169.746 67.2293 169.755 67.2197 169.766 67.213C169.776 67.2063 169.788 67.2029 169.8 67.2029C169.812 67.2029 169.824 67.2063 169.834 67.213C169.845 67.2197 169.854 67.2293 169.86 67.2409L170.2 67.7007V70.9752C170.2 70.9911 170.197 71.0067 170.189 71.0205C170.182 71.0343 170.172 71.0457 170.16 71.0537Z" fill="#D0D0D0"/>
<path d="M171.59 71.0536H170.91C170.9 71.0553 170.89 71.0544 170.88 71.0512C170.871 71.048 170.862 71.0425 170.854 71.035C170.846 71.0276 170.84 71.0184 170.836 71.008C170.832 70.9977 170.83 70.9865 170.83 70.9751V67.7007L171.17 67.2409C171.176 67.2293 171.185 67.2197 171.196 67.213C171.206 67.2063 171.218 67.2029 171.23 67.2029C171.242 67.2029 171.254 67.2063 171.265 67.213C171.275 67.2197 171.284 67.2293 171.29 67.2409L171.63 67.7007V70.9751C171.631 70.9912 171.628 71.0075 171.621 71.0215C171.614 71.0356 171.603 71.0468 171.59 71.0536Z" fill="#D0D0D0"/>
<path d="M176.19 70.9414H87.27V71.2778H176.19V70.9414Z" fill="#878787"/>
<path d="M61.15 40.3834H86.4401C86.3101 39.8788 85.65 38.1406 82.27 38.8247C82.5601 38.558 82.7822 38.2102 82.9139 37.8163C83.0456 37.4225 83.0822 36.9967 83.02 36.5819C82.9839 36.3373 82.8828 36.1107 82.73 35.9315C82.5823 35.7815 82.4088 35.667 82.2201 35.595C80.8801 35.0568 78.55 37.1202 78.55 37.1202C81.41 32.0851 73.62 29.9657 73.55 36.3464C73.55 36.3464 72.41 34.1036 71.16 34.6867C70.65 35.0119 70.97 35.9987 71.16 36.4249C67.51 34.44 64.16 35.6624 65.74 37.9276C62.19 38.0061 61.15 40.3834 61.15 40.3834Z" fill="#EAEAEA"/>
<path d="M12.92 28.2725H28.2101C28.1401 27.9697 27.7401 26.9268 25.6901 27.3305C25.8618 27.1705 25.9942 26.9639 26.0747 26.7303C26.1552 26.4968 26.1812 26.244 26.1501 25.996C26.1253 25.8484 26.0628 25.712 25.9701 25.6036C25.8819 25.5106 25.7758 25.4415 25.6601 25.4017C24.8601 25.0765 23.4401 26.3325 23.4401 26.3325C25.1701 23.2822 20.4401 22.0039 20.4401 25.8615C20.4401 25.8615 19.7501 24.471 18.9901 24.8523C18.6801 25.0541 18.8701 25.6485 18.9901 25.9064C16.7801 24.7065 14.7701 25.4466 15.7101 26.8147C15.1716 26.7596 14.6298 26.8655 14.1397 27.1216C13.6496 27.3776 13.2288 27.7748 12.92 28.2725Z" fill="#EAEAEA"/>
<path d="M23.4601 33.6215H19.0801V42.716H23.4601V33.6215Z" fill="#D0D0D0"/>
<path d="M19.0801 35.9203V36.795L23.4601 36.2343V35.9203H19.0801Z" fill="#7C7C7C"/>
<path d="M23.98 34.8213H18.5701V35.9203H23.98V34.8213Z" fill="#878787"/>
<path d="M76.78 71.0986H91.35C91.2456 70.7494 91.0755 70.4295 90.8512 70.1605C90.6269 69.8916 90.3537 69.6799 90.05 69.5398C89.4001 69.3025 88.6999 69.3025 88.05 69.5398C88.17 69.5398 88.33 69.2483 88.42 69.1473C88.6351 68.9142 88.7816 68.6129 88.84 68.2838C88.8667 68.0869 88.8574 67.8859 88.8127 67.6932C88.7681 67.5004 88.6889 67.3198 88.58 67.1624C88.387 66.9239 88.1448 66.7419 87.8746 66.6324C87.6044 66.5229 87.3145 66.4893 87.03 66.5345H86.95C86.8406 66.5562 86.7334 66.5899 86.63 66.6354C86.182 66.8425 85.7794 67.1563 85.45 67.5549L85.26 67.768C85.7333 67.3392 86.1302 66.8142 86.43 66.2204C86.6107 65.719 86.663 65.1711 86.581 64.6381C86.4989 64.1052 86.2859 63.6085 85.9657 63.2041C85.6456 62.7996 85.2311 62.5034 84.769 62.3489C84.3069 62.1943 83.8154 62.1875 83.35 62.3292C82.4568 62.7899 81.7327 63.5821 81.3 64.572C83.03 61.6564 80.16 59.8957 79.14 62.5086C79.77 60.3555 78.83 58.1015 76.93 59.3687H76.85L76.78 71.0986Z" fill="#7C7C7C"/>
<path d="M76.78 71.0986H85.37C85.3098 70.8865 85.2074 70.6925 85.0706 70.5312C84.9337 70.37 84.7659 70.2457 84.58 70.1679C84.1906 70.0217 83.7694 70.0217 83.38 70.1679C83.4565 69.94 83.4513 69.6877 83.3655 69.464C83.2798 69.2403 83.1201 69.0625 82.92 68.9679C82.7224 68.9048 82.5152 68.8892 82.3119 68.9221C82.1085 68.9549 81.9137 69.0355 81.74 69.1586C82.0637 68.9586 82.3097 68.631 82.43 68.2391C82.5241 67.9457 82.5452 67.629 82.4909 67.3232C82.4367 67.0174 82.3091 66.734 82.122 66.5034C81.9348 66.2728 81.6952 66.1037 81.4288 66.0144C81.1624 65.925 80.8793 65.9188 80.61 65.9963C80.0854 66.2667 79.6587 66.7294 79.4 67.3083C80.4 65.6038 78.73 64.5609 78.13 66.0972C78.72 64.4151 77.59 63.4282 76.78 63.8544V71.0986Z" fill="#707070"/>
<path d="M85.6801 61.8918C85.5226 62.0354 85.3227 62.1074 85.1201 62.0936C85.1462 61.8535 85.2409 61.6292 85.3901 61.4544C85.5511 61.3101 85.7543 61.2381 85.9601 61.2526C85.9312 61.4941 85.8329 61.7185 85.6801 61.8918Z" fill="#7C7C7C"/>
<path d="M79.05 64.5945C78.9269 64.8151 78.734 64.9752 78.51 65.0431C78.4606 64.7712 78.4886 64.4888 78.5901 64.2357C78.7132 64.0152 78.906 63.8549 79.13 63.7871C79.1795 64.059 79.1515 64.3415 79.05 64.5945Z" fill="#707070"/>
<path d="M84.9901 60.9724C85.0341 61.306 84.9852 61.6468 84.85 61.948C84.6184 61.7516 84.45 61.4762 84.3701 61.1631C84.3201 60.827 84.3656 60.4818 84.5001 60.1763C84.7383 60.3726 84.9108 60.653 84.9901 60.9724Z" fill="#7C7C7C"/>
<path d="M7.29003 71.0536L7.52003 67.4203L5.72003 65.0878L5.83003 64.9868L6.89004 65.9961L7.05003 64.9868L7.21003 65.0317L7.18003 66.2989L7.62003 66.7699L7.78004 63.0468L6.90004 61.8245L7.00004 61.7348L7.91003 62.5534L7.97002 60.6022H8.20003L8.36002 63.002L8.59003 65.3793L9.78003 63.9327L9.89003 64.0112L9.46002 64.785L10.21 64.7626V64.9083L9.39003 65.0541L8.58002 66.4671L8.76003 71.0536H7.29003Z" fill="#676767"/>
<path d="M14.97 57.8884C14.9986 57.4331 14.9335 56.9766 14.78 56.5539C14.7014 56.3441 14.5783 56.1588 14.4215 56.0143C14.2647 55.8697 14.0788 55.7701 13.88 55.7241C13.7649 55.6999 13.6462 55.71 13.5357 55.7533C13.4251 55.7966 13.3266 55.8716 13.25 55.9709C13.7114 55.3545 14.0521 54.6362 14.25 53.8626C14.346 53.4813 14.3616 53.0802 14.2956 52.691C14.2297 52.3018 14.084 51.9351 13.87 51.6198C13.638 51.3282 13.3439 51.1073 13.0151 50.9779C12.6863 50.8485 12.3336 50.8147 11.99 50.8797C11.3026 51.0053 10.6781 51.4031 10.23 52.0011C10.3878 50.7946 10.4214 49.5717 10.33 48.3566C10.13 47.1567 9.33001 45.9568 8.20001 46.0129C7.83488 46.0711 7.48455 46.2137 7.17123 46.4319C6.85792 46.65 6.58846 46.9389 6.38 47.2801C5.40268 48.6131 4.80982 50.2479 4.68003 51.9675C4.41593 51.5189 4.09982 51.1116 3.74003 50.7564C3.55603 50.582 3.3424 50.4514 3.11207 50.3724C2.88174 50.2933 2.63951 50.2676 2.40003 50.2966C2.02116 50.4241 1.68255 50.6701 1.42396 51.0058C1.16536 51.3414 0.997515 51.7529 0.940043 52.1918C0.754631 53.1094 0.792608 54.066 1.05003 54.9616C1.58112 56.4113 2.39826 57.7072 3.44004 58.7519C3.21063 58.6635 2.96038 58.6717 2.73594 58.7748C2.5115 58.878 2.32816 59.0691 2.22004 59.3126C2.1107 59.6472 2.08932 60.0101 2.15845 60.3579C2.22759 60.7058 2.38431 61.0241 2.61002 61.275C2.96648 61.7043 3.39457 62.051 3.87003 62.2955C5.19135 62.98 6.6295 63.3346 8.08502 63.3346C9.54054 63.3346 10.9787 62.98 12.3 62.2955C13.2441 61.829 14.0171 61.0137 14.49 59.9854C14.792 59.3372 14.9563 58.6196 14.97 57.8884Z" fill="#7C7C7C"/>
<path d="M6.57005 64.0561C6.45005 63.8991 6.09005 63.843 6.10005 64.1234C5.99005 63.2375 4.95008 63.5739 5.43007 64.4262C4.63008 63.4954 3.92009 64.6841 4.96008 65.2224C4.08009 65.2224 4.57009 66.6577 5.34008 66.041C5.28379 66.0852 5.24275 66.1498 5.22387 66.224C5.20499 66.2981 5.20938 66.3773 5.23632 66.4482C5.26326 66.5191 5.31113 66.5775 5.37188 66.6136C5.43263 66.6497 5.50259 66.6613 5.57006 66.6465C6.46005 66.4895 7.38004 64.8859 6.57005 64.0561Z" fill="#7C7C7C"/>
<path d="M5.05008 61.4209C4.96284 61.1872 4.92848 60.9329 4.95008 60.6807C4.9639 60.5539 5.00473 60.4327 5.06912 60.3273C5.13352 60.2219 5.2196 60.1354 5.32007 60.0752C5.37719 60.0418 5.44065 60.0243 5.50507 60.0243C5.56949 60.0243 5.63298 60.0418 5.6901 60.0752C5.34564 59.84 5.05192 59.5221 4.83008 59.1444C4.72271 58.9544 4.65601 58.7391 4.63519 58.5154C4.61438 58.2917 4.64001 58.0656 4.71008 57.8548C4.7929 57.6601 4.91761 57.4915 5.07297 57.3643C5.22833 57.237 5.40946 57.1551 5.60007 57.1259C5.98711 57.0781 6.37676 57.1854 6.70008 57.4287C6.44767 56.815 6.2565 56.1719 6.13007 55.5111C6.07795 55.1784 6.1289 54.8357 6.27442 54.5399C6.41994 54.2441 6.6513 54.013 6.93009 53.885C7.13279 53.8505 7.33967 53.8636 7.53764 53.9234C7.7356 53.9833 7.92033 54.0886 8.08009 54.2327C8.79079 54.7641 9.33884 55.5274 9.6501 56.4194C9.72779 56.1351 9.83875 55.8636 9.98008 55.612C10.052 55.4861 10.1457 55.3775 10.2556 55.2928C10.3655 55.2081 10.4895 55.1488 10.6201 55.1186C10.8407 55.1189 11.0567 55.1898 11.2427 55.3229C11.4286 55.4559 11.5769 55.6457 11.6701 55.8699C11.9088 56.3252 12.0332 56.8445 12.0301 57.3726C11.9517 58.2347 11.7022 59.0661 11.3001 59.8061C11.411 59.7199 11.5459 59.6815 11.68 59.698C11.8142 59.7145 11.9385 59.7847 12.0301 59.8958C12.1361 60.0557 12.1989 60.2463 12.2114 60.445C12.2238 60.6437 12.1851 60.8423 12.1001 61.0172C11.9677 61.3097 11.788 61.5721 11.5701 61.7909C10.9628 62.386 10.2483 62.8273 9.47517 63.0847C8.70206 63.3421 7.88855 63.4095 7.09009 63.2824C6.51889 63.2032 5.98932 62.9062 5.59009 62.4413C5.33776 62.1563 5.15223 61.8058 5.05008 61.4209Z" fill="#707070"/>
<path d="M2.05007 58.3258C2.13842 58.5397 2.15957 58.7808 2.11006 59.0099C1.91427 58.9276 1.74639 58.7785 1.63005 58.5837C1.54169 58.3698 1.52054 58.1287 1.57005 57.8997C1.76584 57.9819 1.93373 58.131 2.05007 58.3258Z" fill="#7C7C7C"/>
<path d="M1.14003 59.0099C1.4314 59.0163 1.71272 59.1307 1.94006 59.3351C1.73641 59.5667 1.46819 59.7131 1.18004 59.7501C0.892463 59.7496 0.613684 59.6387 0.390015 59.436C0.591476 59.2054 0.855062 59.0557 1.14003 59.0099Z" fill="#7C7C7C"/>
<path d="M10.5 65.1888C10.3999 65.134 10.3189 65.0432 10.27 64.9309C10.377 64.8899 10.493 64.8899 10.6 64.9309C10.6996 64.9919 10.7799 65.0859 10.83 65.2C10.7216 65.2343 10.6064 65.2304 10.5 65.1888Z" fill="#7C7C7C"/>
<path d="M10.69 64.5832C10.5665 64.6882 10.415 64.7435 10.26 64.7402C10.2754 64.5706 10.3425 64.4122 10.45 64.2916C10.5737 64.1856 10.7243 64.1266 10.88 64.1234C10.8653 64.2965 10.7983 64.4587 10.69 64.5832Z" fill="#7C7C7C"/>
<path d="M10.45 54.5692C10.2984 54.7316 10.0995 54.8272 9.89001 54.8383C9.89464 54.603 9.97246 54.3768 10.11 54.1991C10.2626 54.0383 10.4609 53.943 10.67 53.9299C10.6654 54.1653 10.5876 54.3914 10.45 54.5692Z" fill="#707070"/>
<path d="M5.21003 56.5539C5.34127 56.6231 5.44973 56.7369 5.52002 56.8792C5.38113 56.9357 5.22894 56.9357 5.09004 56.8792C4.96046 56.8114 4.85483 56.6969 4.79004 56.5539C4.92546 56.4972 5.07461 56.4972 5.21003 56.5539Z" fill="#707070"/>
<path d="M9.64003 53.8403C9.73531 54.1452 9.73531 54.4774 9.64003 54.7823C9.38346 54.6341 9.17908 54.393 9.06005 54.0982C8.96477 53.7933 8.96477 53.4612 9.06005 53.1562C9.31662 53.3044 9.52099 53.5455 9.64003 53.8403Z" fill="#707070"/>
<path d="M6.05004 66.1755H5.82002C5.71097 66.1616 5.61079 66.1014 5.54003 66.0073C5.50833 65.9664 5.48626 65.9173 5.47579 65.8644C5.46531 65.8116 5.46675 65.7566 5.48003 65.7046C5.53003 65.5588 5.70004 65.5924 5.77004 65.4803C5.78424 65.447 5.79161 65.4106 5.79161 65.3737C5.79161 65.3368 5.78424 65.3005 5.77004 65.2672C5.75517 65.1896 5.75517 65.1093 5.77004 65.0317C5.77902 64.9952 5.79869 64.9632 5.82591 64.9408C5.85313 64.9184 5.8863 64.907 5.92003 64.9084C5.97003 64.9084 6.00005 64.9756 6.03005 65.0205C6.05593 65.0307 6.08415 65.0307 6.11003 65.0205C6.23003 65.0205 6.26004 64.7962 6.40004 64.8299C6.54004 64.8635 6.61004 65.0205 6.65004 65.1551C6.6877 65.2716 6.69736 65.3972 6.67806 65.5192C6.65875 65.6412 6.61114 65.7555 6.54003 65.8503C6.48194 65.9386 6.40865 66.0128 6.32448 66.0687C6.24031 66.1245 6.14697 66.1609 6.05004 66.1755Z" fill="#707070"/>
<path d="M61.7001 30.717L30.6901 30.1227L12.7201 49.5004H26.5301H65.3101H79.1101L61.7001 30.717Z" fill="#878787"/>
<path d="M77.5701 49.5005H57.42V69.7193H77.5701V49.5005Z" fill="#D0D0D0"/>
<path d="M77.5701 49.5005H75.3701V69.7193H77.5701V49.5005Z" fill="#A8A8A8"/>
<path d="M59.6201 49.5005H57.42V69.7193H59.6201V49.5005Z" fill="#A8A8A8"/>
<path d="M75.3801 52.4272H59.6301V52.674H75.3801V52.4272Z" fill="#E9E9E9"/>
<path d="M75.3801 55.2756H59.6301V55.5223H75.3801V55.2756Z" fill="#E9E9E9"/>
<path d="M75.3801 58.124H59.6301V58.3707H75.3801V58.124Z" fill="#E9E9E9"/>
<path d="M75.3801 60.9724H59.6301V61.2191H75.3801V60.9724Z" fill="#E9E9E9"/>
<path d="M75.3801 63.8208H59.6301V64.0675H75.3801V63.8208Z" fill="#E9E9E9"/>
<path d="M75.3801 66.6689H59.6301V66.9156H75.3801V66.6689Z" fill="#E9E9E9"/>
<path d="M59.6201 52.4272H57.42V52.674H59.6201V52.4272Z" fill="#8B8B8B"/>
<path d="M59.6201 55.2756H57.42V55.5223H59.6201V55.2756Z" fill="#8B8B8B"/>
<path d="M59.6201 58.124H57.42V58.3707H59.6201V58.124Z" fill="#8B8B8B"/>
<path d="M59.6201 60.9724H57.42V61.2191H59.6201V60.9724Z" fill="#8B8B8B"/>
<path d="M59.6201 63.8208H57.42V64.0675H59.6201V63.8208Z" fill="#8B8B8B"/>
<path d="M59.6201 66.6689H57.42V66.9156H59.6201V66.6689Z" fill="#8B8B8B"/>
<path d="M77.5701 52.4272H75.3701V52.674H77.5701V52.4272Z" fill="#8B8B8B"/>
<path d="M77.5701 55.2756H75.3701V55.5223H77.5701V55.2756Z" fill="#8B8B8B"/>
<path d="M77.5701 58.124H75.3701V58.3707H77.5701V58.124Z" fill="#8B8B8B"/>
<path d="M77.5701 60.9724H75.3701V61.2191H77.5701V60.9724Z" fill="#8B8B8B"/>
<path d="M77.5701 63.8208H75.3701V64.0675H77.5701V63.8208Z" fill="#8B8B8B"/>
<path d="M77.5701 66.6689H75.3701V66.9156H77.5701V66.6689Z" fill="#8B8B8B"/>
<path d="M34.41 49.5005H14.26V69.7193H34.41V49.5005Z" fill="#D0D0D0"/>
<path d="M34.24 52.4272H14.26V52.674H34.24V52.4272Z" fill="#E9E9E9"/>
<path d="M34.24 55.2756H14.26V55.5223H34.24V55.2756Z" fill="#E9E9E9"/>
<path d="M34.24 58.124H14.26V58.3707H34.24V58.124Z" fill="#E9E9E9"/>
<path d="M34.24 60.9724H14.26V61.2191H34.24V60.9724Z" fill="#E9E9E9"/>
<path d="M34.24 63.8208H14.26V64.0675H34.24V63.8208Z" fill="#E9E9E9"/>
<path d="M34.24 66.6689H14.26V66.9156H34.24V66.6689Z" fill="#E9E9E9"/>
<path d="M30.9701 53.6609H17.7001V69.7193H30.9701V53.6609Z" fill="#A8A8A8"/>
<path d="M30.9701 54.3674L17.7001 56.7784V53.6609H30.9701V54.3674Z" fill="#8B8B8B"/>
<path d="M34.41 69.7193H33.53L34.08 49.5005H34.41V69.7193Z" fill="#7C7C7C"/>
<path d="M34.41 49.8369L14.26 51.0705V49.5005H34.41V49.8369Z" fill="#7C7C7C"/>
<path d="M59.6301 49.5005V50.9359L75.3701 49.9715V49.5005H59.6301Z" fill="#7C7C7C"/>
<path d="M75.3701 49.5005V49.9715L77.5801 49.8369V49.5005H75.3701Z" fill="#8B8B8B"/>
<path d="M57.42 49.5005V51.0705L59.6301 50.9359V49.5005H57.42Z" fill="#8B8B8B"/>
<path d="M57.42 69.7192H34.41V38.2865L45.92 28.2163L57.42 38.2865V69.7192Z" fill="#D0D0D0"/>
<path d="M45.92 28.2163L34.41 38.2865V40.5629L45.38 31.0534L57.42 41.5946V38.2865L45.92 28.2163Z" fill="#7C7C7C"/>
<path d="M59.2501 38.5556L45.9201 27.3304L32.5901 38.6678L33.8901 40.1256L45.9201 29.6069L57.8901 40.0807L59.2501 38.5556Z" fill="#D0D0D0"/>
<path d="M78.2001 69.7192H12.9301V71.1098H78.2001V69.7192Z" fill="#707070"/>
<path d="M28.78 57.1371H19.92V69.7192H28.78V57.1371Z" fill="#D0D0D0"/>
<path d="M24.02 57.709H20.5601V69.0127H24.02V57.709Z" fill="#878787"/>
<path d="M28.11 57.709H24.65V69.0127H28.11V57.709Z" fill="#878787"/>
<path d="M28.78 56.9576H19.92H19.8401H19.73L19.6201 69.7191H19.92V57.1371H28.78V56.9576Z" fill="#8B8B8B"/>
<path d="M73.79 57.1371H61.1301V65.6934H73.79V57.1371Z" fill="#D0D0D0"/>
<path d="M63.8501 57.709H61.7201V65.0205H63.8501V57.709Z" fill="#878787"/>
<path d="M70.54 57.709H64.4701V65.0205H70.54V57.709Z" fill="#878787"/>
<path d="M73.28 57.709H71.15V65.0205H73.28V57.709Z" fill="#878787"/>
<path d="M73.79 57.025H61.1301H60.9401L60.79 65.6822H61.1301V57.1372H73.79V57.025Z" fill="#7C7C7C"/>
<path d="M61.1301 65.6147H73.79V65.8166L60.79 66.4334V65.6147H61.1301Z" fill="#7C7C7C"/>
<path d="M41.52 57.709H38.0601V69.0127H41.52V57.709Z" fill="#878787"/>
<path d="M45.61 57.709H42.15V69.0127H45.61V57.709Z" fill="#878787"/>
<path d="M49.6901 57.709H46.23V69.0127H49.6901V57.709Z" fill="#878787"/>
<path d="M53.78 57.709H50.3201V69.0127H53.78V57.709Z" fill="#878787"/>
<path d="M54.1801 57.025H37.2201L36.9601 69.7192H37.4901V57.1372H54.1801V57.025Z" fill="#7C7C7C"/>
<path d="M45.61 38.4883H42.15V49.7919H45.61V38.4883Z" fill="#878787"/>
<path d="M49.6901 38.4883H46.23V49.7919H49.6901V38.4883Z" fill="#878787"/>
<path d="M50.2501 37.8042H41.3401L41.0801 50.4984H41.6101V37.9163H50.2501V37.8042Z" fill="#7C7C7C"/>
<path d="M54.9701 50.4087H36.8701V51.4516H54.9701V50.4087Z" fill="#878787"/>
<path d="M54.9701 51.4516H36.8701V50.4199L36.17 51.4516V52.4384L54.9701 51.6871V51.4516Z" fill="#7C7C7C"/>
<path d="M37.95 47.5715H37.66V50.4087H37.95V47.5715Z" fill="#707070"/>
<path d="M47.7501 47.5715H47.4601V50.4087H47.7501V47.5715Z" fill="#707070"/>
<path d="M44.48 47.5715H44.1901V50.4087H44.48V47.5715Z" fill="#707070"/>
<path d="M51.02 47.5715H50.73V50.4087H51.02V47.5715Z" fill="#707070"/>
<path d="M41.2201 47.5715H40.9301V50.4087H41.2201V47.5715Z" fill="#707070"/>
<path d="M54.29 47.5715H54.0001V50.4087H54.29V47.5715Z" fill="#707070"/>
<path d="M37.95 47.5715H37.66V47.8407H37.95V47.5715Z" fill="#7C7C7C"/>
<path d="M47.7501 47.5715H47.4601V47.8407H47.7501V47.5715Z" fill="#7C7C7C"/>
<path d="M44.48 47.5715H44.1901V47.8407H44.48V47.5715Z" fill="#7C7C7C"/>
<path d="M51.02 47.5715H50.73V47.8407H51.02V47.5715Z" fill="#7C7C7C"/>
<path d="M41.2201 47.5715H40.9301V47.8407H41.2201V47.5715Z" fill="#7C7C7C"/>
<path d="M54.29 47.5715H54.0001V47.8407H54.29V47.5715Z" fill="#7C7C7C"/>
<path d="M54.5601 47.5716H37.2501V46.8539L54.5601 47.0221V47.5716Z" fill="#707070"/>
<path d="M13.78 68.2278H3.72003V68.6651H13.78V68.2278Z" fill="#C7C7C7"/>
<path d="M13.78 69.9995H3.72003V70.4369H13.78V69.9995Z" fill="#C7C7C7"/>
<path d="M4.79 71.0536H4.11002C4.10002 71.0553 4.08983 71.0544 4.08014 71.0512C4.07046 71.048 4.06153 71.0425 4.05393 71.035C4.04633 71.0276 4.04026 71.0184 4.03614 71.008C4.03201 70.9977 4.02993 70.9865 4.03003 70.9751V67.7007L4.37002 67.2409C4.37625 67.2293 4.38502 67.2197 4.39554 67.213C4.40605 67.2063 4.41794 67.2029 4.43002 67.2029C4.4421 67.2029 4.45396 67.2063 4.46448 67.213C4.47499 67.2197 4.4838 67.2293 4.49002 67.2409L4.83001 67.7007V70.9751C4.83137 70.9912 4.82826 71.0075 4.8211 71.0215C4.81394 71.0356 4.80307 71.0468 4.79 71.0536Z" fill="#D0D0D0"/>
<path d="M6.21008 71.0537H5.53009C5.51153 71.0537 5.49372 71.0454 5.48059 71.0307C5.46746 71.016 5.46008 70.996 5.46008 70.9752V67.7007L5.80008 67.2409C5.8063 67.2293 5.81511 67.2197 5.82562 67.213C5.83614 67.2063 5.848 67.2029 5.86008 67.2029C5.87216 67.2029 5.88405 67.2063 5.89456 67.213C5.90508 67.2197 5.91385 67.2293 5.92007 67.2409L6.26007 67.7007V70.9752C6.26072 70.9926 6.25616 71.0098 6.2471 71.024C6.23804 71.0383 6.22502 71.0487 6.21008 71.0537Z" fill="#D0D0D0"/>
<path d="M7.64004 71.0537H6.96002C6.94043 71.0539 6.92146 71.0459 6.90671 71.0315C6.89196 71.017 6.88245 70.997 6.88 70.9752V67.7007L7.22004 67.2409C7.22627 67.2293 7.23504 67.2197 7.24556 67.213C7.25607 67.2063 7.26796 67.2029 7.28004 67.2029C7.29212 67.2029 7.30398 67.2063 7.3145 67.213C7.32501 67.2197 7.33382 67.2293 7.34004 67.2409L7.68005 67.7007V70.9752C7.68018 70.9911 7.67655 71.0067 7.66952 71.0205C7.66249 71.0343 7.65231 71.0457 7.64004 71.0537Z" fill="#D0D0D0"/>
<path d="M9.05005 71.0537H8.36005C8.34148 71.0537 8.32367 71.0454 8.31055 71.0307C8.29742 71.016 8.29004 70.996 8.29004 70.9752V67.7007L8.64005 67.241C8.64755 67.2314 8.6568 67.2237 8.66715 67.2185C8.67749 67.2133 8.68869 67.2106 8.70004 67.2106C8.71139 67.2106 8.72263 67.2133 8.73297 67.2185C8.74332 67.2237 8.75253 67.2314 8.76004 67.241L9.10004 67.7007V70.9752C9.10068 70.9927 9.09612 71.0099 9.08707 71.0241C9.07801 71.0383 9.06499 71.0487 9.05005 71.0537Z" fill="#D0D0D0"/>
<path d="M10.4901 71.0537H9.81006C9.79047 71.0539 9.77149 71.046 9.75675 71.0315C9.742 71.017 9.73249 70.997 9.73004 70.9752V67.7007L10.07 67.241C10.0776 67.2314 10.0868 67.2237 10.0971 67.2185C10.1075 67.2133 10.1187 67.2106 10.13 67.2106C10.1414 67.2106 10.1526 67.2133 10.163 67.2185C10.1733 67.2237 10.1826 67.2314 10.1901 67.241L10.5301 67.7007V70.9752C10.5314 70.9913 10.5283 71.0075 10.5212 71.0216C10.514 71.0356 10.5031 71.0468 10.4901 71.0537Z" fill="#D0D0D0"/>
<path d="M11.9201 71.0537H11.2401C11.2301 71.0553 11.2199 71.0545 11.2102 71.0512C11.2005 71.048 11.1916 71.0425 11.184 71.0351C11.1764 71.0276 11.1703 71.0184 11.1662 71.0081C11.162 70.9977 11.1599 70.9865 11.16 70.9752V67.7007L11.5001 67.241C11.5076 67.2314 11.5168 67.2237 11.5271 67.2185C11.5375 67.2133 11.5487 67.2106 11.5601 67.2106C11.5714 67.2106 11.5826 67.2133 11.593 67.2185C11.6033 67.2237 11.6126 67.2314 11.6201 67.241L11.9601 67.7007V70.9752C11.9602 70.991 11.9566 71.0067 11.9496 71.0205C11.9425 71.0343 11.9323 71.0457 11.9201 71.0537Z" fill="#D0D0D0"/>
<path d="M13.3501 71.0537H12.6601C12.6415 71.0537 12.6237 71.0454 12.6106 71.0307C12.5975 71.016 12.5901 70.996 12.5901 70.9752V67.7007L12.9301 67.2409C12.9363 67.2293 12.9451 67.2197 12.9556 67.213C12.9661 67.2063 12.978 67.2029 12.9901 67.2029C13.0022 67.2029 13.014 67.2063 13.0245 67.213C13.0351 67.2197 13.0439 67.2293 13.0501 67.2409L13.4001 67.7007V70.9752C13.4007 70.9926 13.3962 71.0098 13.3871 71.024C13.3781 71.0383 13.365 71.0487 13.3501 71.0537Z" fill="#D0D0D0"/>
<path d="M90.3201 68.2278H76.0601V68.6651H90.3201V68.2278Z" fill="#C7C7C7"/>
<path d="M90.3201 69.9995H76.0601V70.4369H90.3201V69.9995Z" fill="#C7C7C7"/>
<path d="M77.1201 71.0537H76.4401C76.4215 71.0537 76.4037 71.0454 76.3906 71.0307C76.3774 71.016 76.3701 70.996 76.3701 70.9752V67.7007L76.7101 67.2409C76.7163 67.2293 76.7251 67.2197 76.7356 67.213C76.7461 67.2063 76.758 67.2029 76.7701 67.2029C76.7821 67.2029 76.794 67.2063 76.8045 67.213C76.815 67.2197 76.8238 67.2293 76.83 67.2409L77.17 67.7007V70.9752C77.1707 70.9926 77.1661 71.0098 77.1571 71.024C77.148 71.0383 77.135 71.0487 77.1201 71.0537Z" fill="#D0D0D0"/>
<path d="M78.5501 71.0537H77.8701C77.8505 71.0539 77.8315 71.046 77.8167 71.0315C77.802 71.017 77.7925 70.997 77.79 70.9752V67.7007L78.13 67.241C78.1376 67.2314 78.1468 67.2237 78.1571 67.2185C78.1675 67.2133 78.1787 67.2106 78.1901 67.2106C78.2014 67.2106 78.2126 67.2133 78.223 67.2185C78.2333 67.2237 78.2426 67.2314 78.2501 67.241L78.5901 67.7007V70.9752C78.5902 70.9911 78.5866 71.0067 78.5795 71.0205C78.5725 71.0343 78.5623 71.0458 78.5501 71.0537Z" fill="#D0D0D0"/>
<path d="M79.9801 71.0537H79.2901C79.2715 71.0537 79.2537 71.0454 79.2406 71.0307C79.2274 71.016 79.2201 70.996 79.2201 70.9752V67.7007L79.5701 67.241C79.5776 67.2314 79.5868 67.2237 79.5972 67.2185C79.6075 67.2133 79.6187 67.2106 79.6301 67.2106C79.6414 67.2106 79.6527 67.2133 79.663 67.2185C79.6733 67.2237 79.6826 67.2314 79.6901 67.241L80.0301 67.7007V70.9752C80.0307 70.9927 80.0261 71.0099 80.0171 71.0241C80.008 71.0383 79.995 71.0487 79.9801 71.0537Z" fill="#D0D0D0"/>
<path d="M81.4 71.0537H80.72C80.7004 71.0539 80.6815 71.046 80.6667 71.0315C80.652 71.017 80.6425 70.997 80.64 70.9752V67.7007L80.98 67.241C80.9875 67.2314 80.9968 67.2237 81.0071 67.2185C81.0175 67.2133 81.0287 67.2106 81.04 67.2106C81.0514 67.2106 81.0626 67.2133 81.0729 67.2185C81.0833 67.2237 81.0925 67.2314 81.1 67.241L81.4401 67.7007V70.9752C81.4414 70.9913 81.4383 71.0075 81.4311 71.0216C81.424 71.0356 81.4131 71.0468 81.4 71.0537Z" fill="#D0D0D0"/>
<path d="M82.8301 71.0537H82.1501C82.1401 71.0553 82.1299 71.0545 82.1202 71.0512C82.1105 71.048 82.1016 71.0425 82.094 71.0351C82.0864 71.0276 82.0803 71.0184 82.0762 71.0081C82.0721 70.9977 82.07 70.9865 82.0701 70.9752V67.7007L82.4101 67.241C82.4176 67.2314 82.4268 67.2237 82.4372 67.2185C82.4475 67.2133 82.4588 67.2106 82.4701 67.2106C82.4815 67.2106 82.4927 67.2133 82.503 67.2185C82.5134 67.2237 82.5226 67.2314 82.5301 67.241L82.8701 67.7007V70.9752C82.8702 70.991 82.8666 71.0067 82.8596 71.0205C82.8525 71.0343 82.8424 71.0457 82.8301 71.0537Z" fill="#D0D0D0"/>
<path d="M84.26 71.0537H83.57C83.5515 71.0537 83.5337 71.0454 83.5205 71.0307C83.5074 71.016 83.5001 70.996 83.5001 70.9752V67.7007L83.8401 67.2409C83.8463 67.2293 83.8551 67.2197 83.8656 67.213C83.8761 67.2063 83.888 67.2029 83.9001 67.2029C83.9121 67.2029 83.924 67.2063 83.9345 67.213C83.945 67.2197 83.9538 67.2293 83.9601 67.2409L84.3101 67.7007V70.9752C84.3107 70.9926 84.3061 71.0098 84.2971 71.024C84.288 71.0383 84.275 71.0487 84.26 71.0537Z" fill="#D0D0D0"/>
<path d="M85.6801 71.0537H85.0501C85.0305 71.0538 85.0115 71.0459 84.9968 71.0314C84.982 71.017 84.9725 70.997 84.9701 70.9752V67.7007L85.3101 67.2409C85.3163 67.2293 85.3251 67.2197 85.3356 67.213C85.3461 67.2063 85.358 67.2029 85.3701 67.2029C85.3822 67.2029 85.394 67.2063 85.4045 67.213C85.4151 67.2197 85.4239 67.2293 85.4301 67.2409L85.7701 67.7007V70.9752C85.7688 70.987 85.7655 70.9984 85.7603 71.0088C85.7551 71.0191 85.7481 71.0282 85.7397 71.0355C85.7314 71.0428 85.7218 71.0482 85.7115 71.0513C85.7013 71.0544 85.6906 71.0552 85.6801 71.0537Z" fill="#D0D0D0"/>
<path d="M87.1101 71.0536H86.4301C86.4201 71.0553 86.4099 71.0544 86.4002 71.0512C86.3905 71.048 86.3816 71.0425 86.374 71.035C86.3664 71.0276 86.3603 71.0184 86.3561 71.008C86.352 70.9977 86.3499 70.9865 86.35 70.9751V67.7007L86.6901 67.2409C86.6963 67.2293 86.7051 67.2197 86.7156 67.213C86.7261 67.2063 86.738 67.2029 86.7501 67.2029C86.7622 67.2029 86.774 67.2063 86.7845 67.213C86.795 67.2197 86.8039 67.2293 86.8101 67.2409L87.1501 67.7007V70.9751C87.1514 70.9912 87.1483 71.0075 87.1412 71.0215C87.134 71.0356 87.1231 71.0468 87.1101 71.0536Z" fill="#D0D0D0"/>
<path d="M88.53 71.0537H87.85C87.8314 71.0537 87.8136 71.0454 87.8005 71.0307C87.7874 71.016 87.78 70.996 87.78 70.9752V67.7007L88.12 67.2409C88.1262 67.2293 88.135 67.2197 88.1455 67.213C88.1561 67.2063 88.1679 67.2029 88.18 67.2029C88.1921 67.2029 88.204 67.2063 88.2145 67.213C88.225 67.2197 88.2338 67.2293 88.24 67.2409L88.58 67.7007V70.9752C88.5807 70.9926 88.5761 71.0098 88.567 71.024C88.558 71.0383 88.545 71.0487 88.53 71.0537Z" fill="#D0D0D0"/>
<path d="M89.9601 71.0537H89.2801C89.2605 71.0539 89.2415 71.046 89.2268 71.0315C89.212 71.017 89.2025 70.997 89.2001 70.9752V67.7007L89.5401 67.241C89.5476 67.2314 89.5568 67.2237 89.5672 67.2185C89.5775 67.2133 89.5887 67.2106 89.6001 67.2106C89.6114 67.2106 89.6227 67.2133 89.633 67.2185C89.6434 67.2237 89.6526 67.2314 89.6601 67.241L90.0001 67.7007V70.9752C90.0002 70.9911 89.9966 71.0067 89.9896 71.0205C89.9825 71.0343 89.9724 71.0458 89.9601 71.0537Z" fill="#D0D0D0"/>
<path d="M91.71 70.9414H2.79004V71.2778H91.71V70.9414Z" fill="#878787"/>
<path d="M105.98 30.2909H139.35C139.19 29.6293 138.35 27.3752 133.84 28.2387C134.215 27.8942 134.504 27.4467 134.68 26.9397C134.855 26.4327 134.91 25.8836 134.84 25.3456C134.787 25.0217 134.651 24.7219 134.45 24.4821C134.255 24.2814 134.023 24.132 133.77 24.0447C132.01 23.3382 128.93 26.052 128.93 26.052C132.7 19.4021 122.42 16.6098 122.35 25.0315C122.35 25.0315 120.84 22.0038 119.19 22.7887C118.52 23.2149 118.94 24.5157 119.24 25.0315C114.42 22.4075 110.03 24.0223 112.07 27.0164C107.35 27.2407 105.98 30.2909 105.98 30.2909Z" fill="#EAEAEA"/>
<path d="M42.3201 14.3781H62.5101C62.4101 13.9857 61.8801 12.6176 59.1801 13.1446C59.4053 12.9325 59.5786 12.6596 59.6836 12.3515C59.7885 12.0434 59.8218 11.7105 59.7801 11.384C59.7509 11.1902 59.6708 11.0106 59.5501 10.8682C59.4308 10.7487 59.2914 10.6572 59.1401 10.599C58.0801 10.1729 56.2101 11.8214 56.2101 11.8214C58.4901 7.79556 52.2701 6.10219 52.2101 11.1933C52.2101 11.1933 51.3001 9.36547 50.3001 9.8701C49.8901 10.1392 50.1401 10.9131 50.3001 11.2607C47.3801 9.6683 44.7301 10.6439 45.9601 12.4605C43.1501 12.5278 42.3201 14.3781 42.3201 14.3781Z" fill="#EAEAEA"/>
<path d="M102.978 9.26498C104.407 7.66215 104.407 5.06341 102.978 3.46058C101.548 1.85774 99.2308 1.85777 97.8015 3.4606C96.3722 5.06344 96.3722 7.66213 97.8015 9.26496C99.2308 10.8678 101.548 10.8678 102.978 9.26498Z" fill="#F9AA41"/>
<path d="M56.2301 21.4431H50.4501V33.4533H56.2301V21.4431Z" fill="#B1DAED"/>
<path d="M50.4501 24.4821V25.6371L56.2301 24.897V24.4821H50.4501Z" fill="#1E9CCF"/>
<path d="M56.91 23.0354H49.77V24.482H56.91V23.0354Z" fill="#1B7EAF"/>
<path d="M106.7 17.608L65.7701 16.823L42.0601 42.4021H60.2801H111.46H129.68L106.7 17.608Z" fill="#1B7EAF"/>
<path d="M127.66 42.402H101.06V69.08H127.66V42.402Z" fill="#B1DAED"/>
<path d="M127.66 42.402H124.75V69.08H127.66V42.402Z" fill="#ECA305"/>
<path d="M103.97 42.402H101.06V69.08H103.97V42.402Z" fill="#ECA305"/>
<path d="M124.75 46.2595H103.97V46.5847H124.75V46.2595Z" fill="#E1ECEF"/>
<path d="M124.75 50.0275H103.97V50.3527H124.75V50.0275Z" fill="#E1ECEF"/>
<path d="M124.75 53.7842H103.97V54.1094H124.75V53.7842Z" fill="#E1ECEF"/>
<path d="M124.75 57.5408H103.97V57.866H124.75V57.5408Z" fill="#E1ECEF"/>
<path d="M124.75 61.2976H103.97V61.6228H124.75V61.2976Z" fill="#E1ECEF"/>
<path d="M124.75 65.0542H103.97V65.3794H124.75V65.0542Z" fill="#E1ECEF"/>
<path d="M103.97 46.2595H101.06V46.5847H103.97V46.2595Z" fill="#C4860A"/>
<path d="M103.97 50.0275H101.06V50.3527H103.97V50.0275Z" fill="#C4860A"/>
<path d="M103.97 53.7842H101.06V54.1094H103.97V53.7842Z" fill="#C4860A"/>
<path d="M103.97 57.5408H101.06V57.866H103.97V57.5408Z" fill="#C4860A"/>
<path d="M103.97 61.2976H101.06V61.6228H103.97V61.2976Z" fill="#C4860A"/>
<path d="M103.97 65.0542H101.06V65.3794H103.97V65.0542Z" fill="#C4860A"/>
<path d="M127.66 46.2595H124.75V46.5847H127.66V46.2595Z" fill="#C4860A"/>
<path d="M127.66 50.0275H124.75V50.3527H127.66V50.0275Z" fill="#C4860A"/>
<path d="M127.66 53.7842H124.75V54.1094H127.66V53.7842Z" fill="#C4860A"/>
<path d="M127.66 57.5408H124.75V57.866H127.66V57.5408Z" fill="#C4860A"/>
<path d="M127.66 61.2976H124.75V61.6228H127.66V61.2976Z" fill="#C4860A"/>
<path d="M127.66 65.0542H124.75V65.3794H127.66V65.0542Z" fill="#C4860A"/>
<path d="M70.6901 42.402H44.0901V69.08H70.6901V42.402Z" fill="#B1DAED"/>
<path d="M70.4601 46.2595H44.0901V46.5847H70.4601V46.2595Z" fill="#E1ECEF"/>
<path d="M70.4601 50.0275H44.0901V50.3527H70.4601V50.0275Z" fill="#E1ECEF"/>
<path d="M70.4601 53.7842H44.0901V54.1094H70.4601V53.7842Z" fill="#E1ECEF"/>
<path d="M70.4601 57.5408H44.0901V57.866H70.4601V57.5408Z" fill="#E1ECEF"/>
<path d="M70.4601 61.2976H44.0901V61.6228H70.4601V61.2976Z" fill="#E1ECEF"/>
<path d="M70.4601 65.0542H44.0901V65.3794H70.4601V65.0542Z" fill="#E1ECEF"/>
<path d="M66.14 47.8856H48.6301V69.08H66.14V47.8856Z" fill="#ECA305"/>
<path d="M66.14 48.8164L48.6301 52.0124V47.8856H66.14V48.8164Z" fill="#C4860A"/>
<path d="M70.6801 69.08H69.52L70.25 42.402H70.6801V69.08Z" fill="#1E9CCF"/>
<path d="M70.6801 42.8393L44.0901 44.4766V42.402H70.6801V42.8393Z" fill="#1E9CCF"/>
<path d="M103.97 42.402V44.2971L124.75 43.0187V42.402H103.97Z" fill="#1E9CCF"/>
<path d="M124.75 42.402V43.0187L127.66 42.8393V42.402H124.75Z" fill="#C4860A"/>
<path d="M101.06 42.402V44.4766L103.97 44.2971V42.402H101.06Z" fill="#C4860A"/>
<path d="M101.06 69.0799H70.6801V27.5995L85.8701 14.3109L101.06 27.5995V69.0799Z" fill="#B1DAED"/>
<path d="M85.8701 14.3109L70.6801 27.5995V30.6048L85.17 18.0564L101.06 31.9617V27.5995L85.8701 14.3109Z" fill="#1E9CCF"/>
<path d="M103.47 27.9584L85.8701 13.1448L68.29 28.1042L70.0001 30.033L85.8701 16.1389L101.68 29.9657L103.47 27.9584Z" fill="#B1DAED"/>
<path d="M128.49 69.0801H42.3401V70.908H128.49V69.0801Z" fill="#2288C4"/>
<path d="M63.2501 52.472H51.5601V69.0799H63.2501V52.472Z" fill="#B1DAED"/>
<path d="M56.97 53.2346H52.41V68.1604H56.97V53.2346Z" fill="#1B7EAF"/>
<path d="M62.36 53.2346H57.8V68.1604H62.36V53.2346Z" fill="#1B7EAF"/>
<path d="M63.26 52.2478H51.56H51.45H51.3L51.16 69.08H51.56V52.4833H63.26V52.2478Z" fill="#C4860A"/>
<path d="M122.66 52.472H105.95V63.7533H122.66V52.472Z" fill="#B1DAED"/>
<path d="M109.54 53.2346H106.73V62.8786H109.54V53.2346Z" fill="#1B7EAF"/>
<path d="M118.36 53.2346H110.35V62.8786H118.36V53.2346Z" fill="#1B7EAF"/>
<path d="M121.99 53.2346H119.18V62.8786H121.99V53.2346Z" fill="#1B7EAF"/>
<path d="M122.66 52.3375H105.95H105.7L105.5 63.7646H105.95V52.4833H122.66V52.3375Z" fill="#1E9CCF"/>
<path d="M105.95 63.6748H122.66V63.9327L105.5 64.7514V63.6748H105.95Z" fill="#1E9CCF"/>
<path d="M80.0601 53.2346H75.5001V68.1604H80.0601V53.2346Z" fill="#1B7EAF"/>
<path d="M85.46 53.2346H80.9V68.1604H85.46V53.2346Z" fill="#1B7EAF"/>
<path d="M90.8501 53.2346H86.29V68.1604H90.8501V53.2346Z" fill="#1B7EAF"/>
<path d="M96.2401 53.2346H91.6801V68.1604H96.2401V53.2346Z" fill="#1B7EAF"/>
<path d="M96.78 52.3375H74.4001L74.05 69.08H74.7501V52.4833H96.78V52.3375Z" fill="#1E9CCF"/>
<path d="M85.46 27.8687H80.9V42.7945H85.46V27.8687Z" fill="#1B7EAF"/>
<path d="M90.8501 27.8687H86.29V42.7945H90.8501V27.8687Z" fill="#1B7EAF"/>
<path d="M91.5901 26.9603H79.83L79.4901 43.714H80.1901V27.1061H91.5901V26.9603Z" fill="#1E9CCF"/>
<path d="M97.8201 43.6019H73.9301V44.9812H97.8201V43.6019Z" fill="#1B7EAF"/>
<path d="M97.8201 44.9813H73.93V43.6019L73.01 44.9813V46.2821L97.8201 45.284V44.9813Z" fill="#1E9CCF"/>
<path d="M75.3601 39.8564H74.9701V43.6131H75.3601V39.8564Z" fill="#2288C4"/>
<path d="M88.3 39.8564H87.91V43.6131H88.3V39.8564Z" fill="#2288C4"/>
<path d="M83.9901 39.8564H83.6001V43.6131H83.9901V39.8564Z" fill="#2288C4"/>
<path d="M92.6201 39.8564H92.23V43.6131H92.6201V39.8564Z" fill="#2288C4"/>
<path d="M79.6801 39.8564H79.29V43.6131H79.6801V39.8564Z" fill="#2288C4"/>
<path d="M96.9301 39.8564H96.54V43.6131H96.9301V39.8564Z" fill="#2288C4"/>
<path d="M75.3601 39.8564H74.9701V40.2041H75.3601V39.8564Z" fill="#4A938C"/>
<path d="M88.3 39.8564H87.91V40.2041H88.3V39.8564Z" fill="#4A938C"/>
<path d="M83.9901 39.8564H83.6001V40.2041H83.9901V39.8564Z" fill="#4A938C"/>
<path d="M92.6201 39.8564H92.23V40.2041H92.6201V39.8564Z" fill="#4A938C"/>
<path d="M79.6801 39.8564H79.29V40.2041H79.6801V39.8564Z" fill="#4A938C"/>
<path d="M96.9301 39.8564H96.54V40.2041H96.9301V39.8564Z" fill="#4A938C"/>
<path d="M97.28 39.8564H74.4401V38.9032L97.28 39.1275V39.8564Z" fill="#2288C4"/>
<path d="M146.3 70.6948H28.9501V71.1322H146.3V70.6948Z" fill="#1B7EAF"/>
</svg>
